<svg xmlns="http://www.w3.org/2000/svg" viewBox="0 0 644.5 703.4"><defs><style>.a{fill:none;stroke:#00a79d;stroke-linecap:round;stroke-linejoin:round;stroke-width:2px}</style></defs><path d="m321.8 219.6-1.1-6.7 9.9-8.4 38.3 17.3 4 3.6-2.8 12.9-15.5 17" class="a"/><path d="m320.7 212.9-16.4 11.8 1.9-10.6 11.1-13.8 15.6-11.3 31.9 12.8 8.1 23.6" class="a"/><path d="m348.3 212.6 13.8-1.7 6.6 2.4-11.8-9.7-11.3-1.9-13.1-5-7.8 1.3-18.5 16.1 24.4-9.6" class="a"/><path d="m317.3 200.3 3.4-12.9 12.3-3.6h9.7l8.9-1.4 13.2 19.4" class="a"/><path d="m306.2 214.1 9.3-18.5 5.2-8.2 5.5-5.8 12.2-3.5 13.2 4.3m-36.1 13.2 27.2-11.8M308.8 264l14.8-8.7-8.1-11.7-11.2-18.9 1.9 7.1-1.9 8.4 3.1 12.8-5.1 14.2 10.8-16.6-.6-12" class="a"/><path d="M338.4 282.1 308.8 264l-31.5 15.3-3.5 16-33 70.4 2.6 25.1 12 23.3h23.1l-16.8-52 33.5-30.3 17.8-20.5 19.3-22.2 6.1-7z" class="a"/><path d="m240.8 365.7 20.9-3.6 5.8 18 29-16.7 13.4-19.6 17.6-11.2-1.1 8.2-13.2 11.6-6.1 20-8 5.3-43.7 36.4-23.2-14.6 8.6-33.8zm97.6-129.1-2.2-2.2-1.2-9.9-13.2-4.9 4.3 22.9-3.5 18.7-13.8 2.8-3.2 15.7-7.4 37.1-3 15-21.4-36.5 3.5-16 17.9 52.5m77.4 70.4 28.5 3.5 35-40-20.7-3.6-8.6 26-34.7 1.7-6.5.6-10.9 9.9-16.3 2.3 2.9 4.3 16.1 1.2 15.2-5.9M241.4 507.4l-1.9-22.1 39-71.2 4.9 16.2-42 77.1 8.5 11.5 16.2-.6-22.7 46.4 13.1 21.1 19.9 7.4 9.7 25.4-9.7 7.3-10.3-2.3 3.7-11 6.6-19.4" class="a"/><path d="m276.4 593.2 20.3-173.4-30.6 98.5 17.3-88 15.7-52.6-2.4 42.1 19.9 112.3-14.6 63.3-35.9 99.9 24.3 6.6 34.7-10.3 30 7.5 66-2.7-82.7-26.6 33.4-46.6L400.6 520l1.3-66.4-3.5-39.5" class="a"/><path d="m328.6 427.1-12 105-30.5 86.5m-8.8-339.3 12.5 14.1 12.5-26.2m30 21.9-26.7-9.4 7.4 31.6-14.8 5.5" class="a"/><path d="m305.6 279.7-15.8 13.7 5.4 38.4 1.3 31.6m5.5 232 35.4-60 5.1-42.1" class="a"/><path d="m401.9 453.6-20.8 77.7-115 164 86.8-153-10.4-49-13.9-66.2 31.4 31.3-7.1 83.9m-30.6 149.9 16.1-22.4 42.7-138.5-38.6 91.5-52.1 79.1m8.7-324.2 13.3 76.4 16.2-27m-16.2 27 4.2 78m-42-319.6-101.8-58.6-12 8 19.8 26.5-6.6 6.6 18.3 19.1-8 6.2 14.3 12.4-5.2 5.2 11.5 9.7-3.2 5 12.1 11.4-2.3 6.1 13.7 7.9-.8 6.5 7.8 2.7v8.1h10.6l1.2 7.4h11.1l2.1 5.6 16.6-13 .4 34.1-12.5 32.7-18.3 28.7-11.2 8.7m106.2-117.4 29.7-18.1 31.5 15.3 3.5 16 33 70.4-2.7 25.1-11.9 23.3h-23.1l2.7-8.4 5.7-17.6 8.4-26-33.5-30.3-17.8-20.5-19.3-22.2-6.2-7z" class="a"/><path d="m436.1 365.7 8.6 33.8-23.2 14.6 32.8 56 10.7 25.6v19.1l-17.6-37.2-26.3-34-22.7-29.5" class="a"/><path fill="#00a79d" d="M338.4 243.6h2.1a.8.8 0 0 0 .6-.3l1.5-1.8a.8.8 0 0 0-.2-1.2l-1.6-.8a.8.8 0 0 0-.5 0l-1.7.2a.5.5 0 0 1-.3 0l-1.7-.3a.8.8 0 0 0-.5.1l-1.6.8a.8.8 0 0 0-.2 1.2l1.5 1.8a.8.8 0 0 0 .6.2Z"/><path d="m355.1 219.6-4.3 22.9 3.5 18.7 13.8 2.8 3.1 15.7 7.5 37.1 16.8 27.4 7.6-48.9-3.5-16-20.9 37.5" class="a"/><path d="m344.6 289.1 26.6-9.4-7.3 31.6 14.8 5.5" class="a"/><path d="m371.2 279.7 19.4 15.6 4.9 48.9m7.6-48.9 12.1 66.8 18.2 28.7 11.3 8.7M266.1 518.3l-9.6 67.5m155.9 30.8 8.7 9.2 10.6-3.6-9.4-34.7m-83.9 82.3 41.4-29.4 14.8-23.1" class="a"/><path d="m382.4 665.2 40.2 5.8-42.8-30.6 2.6 24.8 38.7 31.2 1.5-25.4-13.9-25.8-14.1-27.9 13.4-36.2-36.2 42.1M313 311.3l-3.1 32.5m28.5 58.8-9.8 24.5-29.5-49.4m58.3 30.4 2.6 50.3 12.6-56.2 8.5 129.1m-17.2-220 1.2 31.6 41.7 45.2-11.3-43.9-30.4-1.3-14.2-10.3-12.5-50.5-10.9 50.5" class="a"/><path d="m400.6 520 7.4 61.1 4.4 35.5 9.9-29.1 35.4-22.4 12.1-25.3-4.8-25-12.9-3.8-15.7 5.7-8.8 7.4-5 16.4-1.5-96.9 15.3 73.1-14.1 70.8m25.1-109.9-25.9-63.5" class="a"/><path d="m427.6 524.1-6.5-80.5 31 67.4 5.6 54.1m-49.7 16 14.6-40.6-.3 47m-67.2-367.9 15 18.7m-15-18.7 5.7 28m-39.1-28-8.7 19.8m47.8 8.2 1.8 9.5 5.5 6.9m-40.6 68.6h23.4m-55.7-.8-21-2.4-33.4 36.3m61.5-98.5-21-19.6-10.2-18.1 3.5-17 10.5-30.1-27.7-55-86.7-60.6L0 0l12.1 21.8L39.4 60 27.6 79.2 69.7 128l-5.2 17.2 43.7 26.7-9.1 22.8 25.7 17.4-3.8 14.2 15 12.7-5.9 17.5 15.2 7.5-3.3 16.3 14.3 3.7-2 26.9 14.6 5.9 5.8 21.5 13.6.8 4.6 14.8 12.4-1 3.9 14 8 .5 6.4 12.7 8.6-.9 8.6-13.5" class="a"/><path d="m170.7 66.8-22.9 2.8 13.9 22.5-15.9 11.8 22.5 23.5 67.3 14 21.8-14-95.7-35.3L12.1 21.8m149.6 70.3 73.9 49.3m49.5 41-49.5-41m39 71.1-39-71.1m-89.8-37.5L39.4 60m128.9 67.4L27.6 79.2M69.7 128l103.1 25.9m-4.5-26.5 4.5 26.5M27.6 79.2l118.2 24.7M39.4 60l122.3 32.1M12.1 21.8l135.6 47.8m-78 58.4 98.6-.6m88.9 180.9-40 59.1m40-59.1-33.6 71.8m31.5-77.4-49.8 50.2m38.7-50.2-55.7 36.4m43.9-43.8-63.3 21.5m55.5-32.3-68.1-.5m55.2-13.9-66.2-6.1m56.4-11.4L136 239m48.3-18.7-59.5-8.2M174 195l-65.8-23.1m52.6-10-96.3-16.7m96.3 16.7-52.6 10M174 195l-74.9-.3m85.2 25.6-63.3 6m59.6-37.9 94 24.1m-82.3 1.6 82.3-1.6m-76 20.2 82.7 14.9m-76.4 0h76.4M213.7 264l88.6 3.2M225.2 278l77.1-10.8m-70.1 20 45.1-7.9m-34.5 16 34.5-16m-22.2 23.4 22.2-23.4m-6.2-49.8-78.8-15.4 89 33.5m-151.2 8.9 71.6-3.9M142 280.3l69.5-10.2m-18.6 83.8 51.1-51.2m-11.8-7.4-57.5 43m-20.4-27.4 70.1-26.4m-51.6-130.6 48.8 6 14-18.5m-14 18.5 53 52.6M317 359.6v24l21.4 12.1 21.5-12.1v-24l-21.5-12-21.4 12z" class="a"/><path d="M332.4 382.5h12.1l6.1-10.9-6.1-10.9h-12.1l-6.1 10.9 6.1 10.9zm-6.3-140 8.7 8.7h8.6l7.4-8.7m14.3 100.4-5.2 16.7m-9-27-12.5 15m-21.4 36 11.6 43.5m9.8-31.4v6.9m21.5-19 46.9 4.5m-46.9-28.5 47.6 28.9m-100.4-16.1 21.5 54.7m-1.1-94.5 10.9 15m-25.2 4.8 3.8 7.2m0 0 15.4 1.1m6-13.1 6.1 13.1m15.4-1.1-9.3 12m9.3 12-15.4-1.1m-6.1 13.2-6-13.2m-15.4 1.1 9.3-12" class="a"/></svg>