<svg xmlns="http://www.w3.org/2000/svg" xml:space="preserve" id="Layer_1" x="0" y="0" version="1.1" viewBox="0 0 609.1 1127.9"><style>.st0,.st1{opacity:.2;fill:#14588c;enable-background:new}.st1{opacity:.4;fill:#020104}.st2{fill:none;stroke:#14588c;stroke-miterlimit:10}.st3{fill:#fff}.st4{opacity:.5}.st6,.st9{fill:none;stroke:#06c;stroke-width:1.5;stroke-miterlimit:10}.st9{stroke:#14588c;stroke-width:2}.st10{opacity:.7}.st11{fill:#14588c}</style><path d="M13.3 670.4h586.2v32.8H13.3v-32.8z" class="st0"/><path d="M13.3 281.4h586.2v389H13.3v-389z" class="st1"/><path d="M13.3 703.2h586.2" class="st2"/><path d="M36 293.3c.3-.9.6-1.8 1.1-2.6H25.5v3.1h10.4l.1-.5zm15.7 0a16.7 16.7 0 0 0-9.2-2.9c-5.3 1.3-4.5 9.9-4.4 14.3 1 19.4 29.3-1.6 13.6-11.4zm-.2 12.4a12.3 12.3 0 0 1-8.8 3.8 18 18 0 0 1 0-16c6.1-.5 14.3 6.4 8.8 12.2zm-16.6-7.3.2-1.6h-9.6v3.1h9.3l.1-1.5zm-9.2 10.8v3.1h11.6c-.7-.9-1.1-2-1.4-3.1H25.7zm9.4-3.1-.3-3.1h-9.3v3.1h9.6zm41.8 2.7c-1 .1-1.9-.7-1.8-1.7v-15.2h-2.5v15.7c-.4 3.2 3.5 4.1 5.8 3.1l-.2-1.9h-1.3zm45.3-15h-2.6v4h-2.4v1.8h2.4c.5 5.5-2.5 13.5 6.6 11.1l-.3-1.9c-1.4 0-3.9.4-3.7-1.7v-7.5h4.1v-1.8h-4.1v-4zm-11.2 3.6a9.7 9.7 0 0 0-5.8 2.4c.4-1.8.2-6.1.2-7.9h-2.6v19h2.6v-9.5c9.4-6.3 6 4.3 6.6 9.5h2.6c-.7-3.1 2.4-14.1-3.6-13.5zm27.8 7.4c-1.2-1.3-4.5-1.5-6.1-2-.8-.2-2.2-.7-1.9-1.8-.1-2.8 6.4-1 8.2-1.5l.2-1.8c-1.2-.4-4.5-.3-5.7-.3-5.1-1.2-7.6 6.4-2.2 7.5 1.4.7 5.8.4 5.8 2.6.4 2.9-7.1 1.2-8.4 1.6l-.2 1.8c4.5.7 14.3 1.1 10.3-6.1zM82.7 292c-.6 0-2.1-.3-2 .8.1.7-.4 2.4.8 2.3.6-.1 2.1.3 2-.7-.1-.7.4-2.6-.8-2.4zm10.2 5.4c-4.7-1.1-8.2 4.7-4 7.7-1.3.9-1.6 3.2-.2 4.1-2.6.9-3 4.8-.7 6.2 2.5 1.3 6.1 1 8.8.5 2.8-.4 3.5-4.3 1.9-6.3-1.4-1.6-5.7-1.5-7.6-1.9-1.2-.1-1.4-1.4-.9-2.2 4.3 1.3 10.6-.9 7.9-6.3l2.1-.2v-1.3c-2 .2-5.4-.2-7.3-.3zm-3.8 7.5zm7 5.7c1.1.3.9 1.9.5 2.8-.6.9-2.7.6-3.6.8-.9-.2-3 .1-3.6-.8a2.9 2.9 0 0 1 1-3.7c1 .2 4.8.5 5.7.9zm-.6-7.3c-2.6 1.7-8.2-.2-5.2-3.6 2.7-1.6 8 .3 5.2 3.6zm-14.7-5.6h2.6v13.2h-2.6z" class="st3"/><g class="st4"><path d="M303.3 681.8c.6-.5 1.6-.6 2.1 0l7 7c.9.9.2 2.6-1.1 2.6-.7.3-6.3-6-6.9-6.4l-5.9 5.9c-1.3 1.5-3.6-.7-2.2-2.1l7-7z" class="st3"/></g><path fill="none" d="M69.5 332h470.3v338.4H69.5z"/><path d="M147.4 670.4c.4-30.8-.2-74 7.9-107.3 12.5-26.3 39.1-44.1 65.6-61.8 14.9-7 52.6-9.1 52.6-9 20.9-.9 40.7-.9 62.2 0 0-.1 37.7 2 52.6 9 26.5 17.7 53.1 35.5 65.6 61.8 7.6 28.8 7.7 78.1 7.9 107.3" class="st6"/><path d="M450.2 670.4c-2.3-33.8-4.7-58.8-9-90.7m-273.2 0c-3.5 25.1-7.1 59.9-9 90.7m8.8 0c-1.7-38.8 4.3-69.2 5.2-104 30.2-46.1 76.4-52.1 131.6-51.9s101.5 5.7 131.6 51.9c.9 34.7 6.9 65.2 5.2 104m-262.9 0c8.5-54.4 21.6-118.6 57-167.7 23-6.9 54-8.2 69.1-8.2s46.2 1.3 69.1 8.2c34.7 48 48.2 111.2 57 167.7" class="st6"/><path fill="none" stroke="#f1f1f2" d="M453.4 584.1a60 60 0 0 0-34.4-52.4c-12.2-7.5-15.6-8.5-27.7-20.7a13.6 13.6 0 0 0-8.9-4 18.3 18.3 0 0 0-8.7-4.3c11.7 17.3 10.9 20.6 30 31.7 19.4 12.8 34.6 31 43.5 52.5 1.8 4.6 3.2 9.3 4.3 14.1 3.9 4.4 3-7.9 1.9-16.9zm-11.5-15.6c-9.5-14.9-9-12.5-28.6-28.1 23.5 13.9 38.9 29.1 37.6 56.7-2.2-8.6-6.6-24.8-9-28.6zm9.1 28.6c-7.9-30.7-10.1-36.6-37.7-56.7 26.8 14.9 34 28.3 37.6 56.7h.1zm0 0c1.5 4 1.9-4.4 1.6-5.5-.4-3-1.6-7.4-1.2-14.6m-38.1-36.6c-14-9.1-20-19.7-30.9-33.4m8.9 4c3.1 4.2 8 9 7.1 11.8m-3.6-1.8c17 8.7 32.5 19.9 46.2 33.2m-31.3-28.1c15.6 12.6 34.7 22.9 40.3 41.3-10.5-16.8-31.3-29.2-51.1-39.2m-7.6-17.2c7.9-2 21.9 14 32.6 20.8m-268.6 69.1c0 .7.5 1.2 1.2 1.2s1.2-.5 1.2-1.2a102.7 102.7 0 0 1 28.2-50.3 189.8 189.8 0 0 1 36.8-27.5c3.7-7.2 8-14 12.8-20.5-3.2.6-6.2 2.1-8.7 4.3-3.5-.1-7.4 2.4-8.9 4-12.1 12.2-15.5 13.2-27.7 20.7-28 13.2-37 42.7-34.9 69.3zm3-3.8c-1.3-27.6 14.1-42.8 37.6-56.7-27.6 20.1-29.8 26-37.6 56.7zm6.8-28.8c6.3-12.4 16.8-19 30.8-27.9-27.7 20.1-29.8 26-37.6 56.7 1.5-9.8 3.8-19.4 6.8-28.8zm-7.2 8.7c.3 7.2-.9 11.6-1.2 14.6-.4 1.1 0 9.5 1.6 5.5m68.5-90.1c-11 13.8-16.8 24.2-30.9 33.4m14.9-17.6c-.9-2.8 4-7.6 7.1-11.8m-49.7 43.2a191.6 191.6 0 0 1 46.2-33.2m-4.1 7.2c-19.8 10-40.5 22.4-51.1 39.2 5.6-18.3 24.7-28.7 40.3-41.3m-14.2 5.7c10.8-6.8 24.5-22.7 32.6-20.8"/><path fill="#14588c" d="M156.3 601.9 69.5 332l205.3-.4-49 175.3c-28.4 40.4-58.3 48.9-69.5 95zm296.6 0L539.7 332l-205.3-.4 49.1 175.3c28.3 40.4 58.2 48.9 69.4 95z" opacity=".5"/><g class="st4"><path d="M219 394v5.7h3.8v3.8H219v5.8h4.6l1.1 3.8H219v5.7h-3.8v-5.7h-3.8v-3.8h3.8v-5.8h-3.8v-3.8h3.8V394h-3.8v-3.8h3.8v-5.7h3.8v5.7h5.7c-.2 1.3-1 2.5-1.1 3.8H219zm13.4-6.1c12.8-1 24.3 15.3 11.4 23.8-4.2 2.3-11.9 6.6-15.1.8-2.7-6.5-4.3-21.9 3.7-24.6zm.2 23.6c17-.5 17-19.2 0-19.8-3.1 5.4-3 14.6 0 19.8z" class="st3"/></g><path d="M285.5 388.3h14.3c-.7 1-1 2.1-1.4 3.2l-.2.6h-12.7v-3.8zm11.4 11.4h-11.4v-3.8h11.8l-.4 3.8zm.4 7.6h-11.8v-3.8h11.4l.4 3.8zm.9 3.8c.4 1.4 1 2.7 1.8 3.9h-14.3v-3.9h12.5zm8.3-23.2c12.8-1 24.3 15.3 11.4 23.8-4.2 2.3-11.9 6.6-15.1.8-2.7-6.5-4.3-21.9 3.7-24.6zm.1 23.6c17.1-.4 17.1-19.3 0-19.8-2.9 5.9-3 13.9 0 19.8z" class="st3"/><g class="st4"><path d="M371.9 398.8c0 1.2-.3 2.7-.2 4l-10.5 2.6-.9-3.6 11.6-3zm.4 9.5c.2 1.2.5 2.5 1 3.6l-12.1 3.1-.9-3.6 12-3.1zm-11.8-16.2 14.1-3.6c-.7 1.4-1.2 2.9-1.5 4.4l-11.6 2.8-1-3.6zm21-4.2c12.8-1 24.3 15.3 11.4 23.8-4.2 2.3-11.9 6.6-15.1.8-2.7-6.5-4.3-21.9 3.7-24.6zm.2 23.6c17.1-.7 17-19.1 0-19.8-3 5.5-2.9 14.6 0 19.8z" class="st3"/></g><path d="M268.7 436.7H341" class="st2"/><path d="M576.4 115.4h16.5c1.6.1 2.9-1.2 3-2.8V16a3 3 0 0 0-3-3h-35a3 3 0 0 0-3 3v77.9c0 .8.3 1.6.9 2.2l18.5 18.4c.5.6 1.3.9 2.1.9z" class="st9"/><g class="st10"><path d="M562.7 25.3c4.3-4.4 10.8 2.3 6.6 6.6-4.4 5.3-11.9-2.2-6.6-6.6zm4.4 2.2c-1.3-1.5-3.6.7-2.3 2.1 1.4 1.7 3.7-.6 2.3-2.1zm15.2-.5c2.3 0 4.6.7 6.5 2l-1.8 4.5c-4.2-4.1-11.9-.8-11.7 5.1-.1 5.6 6.8 9 11.2 5.5l1.8 4.4c-7.4 4.6-17.8-1.1-17.7-9.9 0-6.4 5.3-11.7 11.7-11.6zm-7 36.5c5.1-.5 6.4 5 6.1 9.1-.1 2.8.1 6.3-2.5 8.1-6.7 3-10.3-1.6-9.7-8.1-.3-4.1 1-9.6 6.1-9.1zm0 2.2c-4.8 0-3.6 6.8-3.5 10.1.1 2.7 2.6 4.6 5.2 3.3 2.2-1.3 1.8-4.3 2-6.5 0-2.6 0-7.1-3.7-6.9z" class="st3"/></g><path d="M33 120.9H16.4a3 3 0 0 1-3-3V16a3.2 3.2 0 0 1 3-3h35.1c1.6.1 2.9 1.4 3 3v83.4c0 .8-.3 1.6-.9 2.1L35.1 120c-.5.6-1.3.9-2.1.9z" class="st9"/><g class="st10"><path d="M47.5 79.2c-1.1-3.4-6.9-2.9-8.8-.4-.4-6 2.7-6.6 7.9-6.2l.2-1.8c-11.7-2.7-11.8 7.8-9.3 16 6 5.1 12.9-.1 10-7.6zm-2.2 5.5c-.6 2.4-4.9 2.4-6 .5-.7-1.2-.5-3.5-.6-4.9 4-3.4 8.1-.6 6.6 4.4zM26.9 55.8h14.5c1.1 0 2.1-1 2-2.1V29.9c.1-2.5-3-2.1-4.6-2.1v-3.1h-9.4v3.1c-1.7 0-4.6-.4-4.6 2.1v23.8a2 2 0 0 0 2.1 2.1zm1-24.9h12.4v10.9H27.9V30.9zm3.5 43.3h-1.9c-.4 1.8-.4 6.1-.4 7.9-.4-.1-6.3.3-6.3-.3-.8.1 4.8-10.8 4.7-11H25c-.1.5-5.6 11.6-5 11.8.3 2.7 7.5 1.1 9.1 1.5v4.2h2.3v-4.2l2.3-.3v-1.7h-2.3v-7.9z" class="st3"/></g><path d="M11.3 1000.5h586.2v32.8H11.3v-32.8z" class="st0"/><path d="M11.3 942.6h586.2v57.8H11.3v-57.8z" class="st1"/><path d="M11.3 1033.3h586.2" class="st2"/><path d="M53.1 958.5H44v4.6h-6.1v-4.6h-9v4.6h-4.6v21.1h33.3v-21.1h-4.5v-4.6zm1.5 7.6v15.1H27.3v-15.1h27.3zm104.2 2-3.9 11.3h-.4c0-.9-3.5-10.2-3.8-11.3H148l4.7 12.7c0 .2.1.4.3.5h1.2a5.8 5.8 0 0 1-4.1 3.9l.2 1.7c7.1.4 8.7-14.5 11.3-18.8h-2.8z" class="st3"/><path d="M30.3 972.1h9.1v3.1h-9.1zm15.2 6.1h3v-3h3.1v-3.1h-3.1v-3h-3v3h-3v3.1h3zm98.1-9.7c-1 .4-1.9 1-2.8 1.7l-.2-2.1h-2v13.2h2.6v-9.5c1.6-.7 3.8-1.7 5.6-1.5l.3-2.5c-1.2 0-2.4.1-3.5.7zm-36.9-4.2h-2.6v3.8l-2.4.2v1.8h2.4c.4 5.5-2.3 13.2 6.6 11.1l-.3-1.9c-.8-.1-2.9.3-3.3-.4-.8-.6-.2-7.8-.4-8.8h4.1v-2h-4.1v-3.8zm-26.8 3.5c-1.9-.1-3.8 1.1-5.1 2.4.4-1.9.2-5.8.3-7.8h-2.6v18.4c1.9.7 4.2 1 6.2.9 7.6 1.1 8.2-14.1 1.2-13.9zm1.7 9.8c-.8 2.7-4.4 2.1-6.5 1.6v-7.4c5.3-4.7 8.1.6 6.5 5.8zm35.5-13.3h-2.6v3.8l-2.4.2v1.8h2.4c.4 5.5-2.2 13.2 6.6 11.1l-.3-1.9c-1.4 0-3.9.4-3.7-1.7v-7.5h4.1v-2h-4.1v-3.8zm16.8 4.6a7.6 7.6 0 0 0-4.4-1.1c-7-1.1-8.4 10.1-3.5 13.2 2.8 1.1 6.1.9 8.9 0l-.2-1.7c-3.1.2-8.7 1.3-8.6-3.4 1.9-.3 7.1.8 8.4-1 1.2-1.8 1.1-4.6-.6-6zm-1.5 4.5c-.5 1.2-5.4.4-6.4.6-1.3-5 8.4-5.8 6.4-.6zM97 968.2c-2.8-.8-6.2-.3-9 .1l.2 1.9 5.8-.2c2.4-.2 2.8 1.4 2.6 3.2-2 .2-6.7-.8-8.3.8-4.1 6.6 3.7 10.2 8.4 5.1l.3 2.2h2.1c-.6-2.9 1.6-11.7-2.1-13.1zm-1.5 10c-2.8 2.1-7 1.4-5.1-2.8.5-.8 5.4-.2 6.2-.4v2.3c-.3.4-.7.7-1.1.9z" class="st3"/><g class="st4"><path d="M310.3 1015.2c1.3-1.5 3.4.8 2.1 2.2l-7 6.9c-.5.6-1.5.5-2.1 0l-7-6.9c-1.3-1.4.6-3.6 2.1-2.3l6 6 5.9-5.9z" class="st3"/></g><path d="M112.7 999H55.6a8 8 0 0 0-7 4l-28.5 49.4a7.9 7.9 0 0 0 0 8.1l28.5 49.5a8 8 0 0 0 7 4h57.1a8 8 0 0 0 7-4l28.5-49.5a7.9 7.9 0 0 0 0-8.1l-28.5-49.4a8 8 0 0 0-7-4zm220.4 0H276a8 8 0 0 0-7 4l-28.5 49.4a7.9 7.9 0 0 0 0 8.1L269 1110a8 8 0 0 0 7 4h57.1c2.9 0 5.5-1.5 7-4l28.5-49.5a7.9 7.9 0 0 0 0-8.1l-28.5-49.4a8.1 8.1 0 0 0-7-4zm220.4 0h-57.1a8 8 0 0 0-7 4l-28.6 49.4a8.3 8.3 0 0 0 0 8.1l28.6 49.5a8 8 0 0 0 7 4h57.1c2.9 0 5.5-1.5 7-4l28.5-49.5a7.9 7.9 0 0 0 0-8.1l-28.5-49.4a8.1 8.1 0 0 0-7-4z" class="st9"/><g class="st4"><path d="M229.5 1063.9a7.9 7.9 0 0 0-7-4.1h-57a8 8 0 0 0-7.1 4.1l-28.5 49.4a8 8 0 0 0-1.1 4h130.4a8 8 0 0 0-1.1-4l-28.6-49.4zm220.3 0a7.9 7.9 0 0 0-7-4.1h-57.1a7.9 7.9 0 0 0-7 4.1l-28.5 49.4a7.1 7.1 0 0 0-1.1 4h130.3c0-1.4-.3-2.8-1.1-4l-28.5-49.4z" class="st11"/></g><path d="m78.6 1056.7.2-1.9-9.7-5.4c.3 21.6-3.3 14.3 15.1 25.2V1064a7.4 7.4 0 0 1-5.6-7.3zm2.3-5.4c3-2.9 7.8-2.9 10.7.2l9.6-5.3c-19-10.3-11.1-10.2-30.1 0l9.6 5.3.2-.2zm17.7-950.1c-.3-.4-3-.1-3.4-.2s-.8.3-1 .7l-5.9 17.9h2.8l1.8-5.6h7.5l1.8 5.6h2.8l-6-17.9-.4-.5zm-5 10.5 2.6-8.6h.8l2.6 8.6h-6zm22.4-5.5.1 1.1a9 9 0 0 0-4.6-1.2c-8.5-.2-5.9 21 4.9 11.7l.2 1.8h2.1v-18.9H116v5.5zm-2.4 11.3c-4.7 1.6-4.7-4.4-4-7.5.9-2.7 4.5-1.6 6.5-1v7.1l-2.5 1.4zm-19.9 939.2a7.4 7.4 0 0 1-5.6 7.3v10.6c18.4-10.9 14.8-3.7 15.1-25.2l-9.7 5.4.2 1.9zm-3.8 0c-.7-7.1-11-2.7-6.4 2.7.7.7 1.6 1.1 2.6 1.1 2.1 0 3.8-1.7 3.8-3.8zm86.6-938.9c-6.2.6-7.3-1.9-6.1-7.6 1-2.8 5.1-1.7 7.3-1.9l.3-1.6c-5.4-1.6-11.3-.4-10.7 6.4-.6 7 5.5 8.1 10.9 6.2l-.2-1.7-1.5.2zm28.1-11.6.1 1.2c-1.4-.8-3-1.3-4.6-1.3-6-.2-5.9 8.2-3.9 12.1 2 3.1 6.7 1.8 8.7-.6l.3 2h2v-18.9h-2.6v5.5zm-2.6 11.3c-5 2-5.2-6.5-3-8.9 1.8-.7 3.9-.1 5.6.4v7c-.7.5-1.7 1.3-2.6 1.5zm105.7 923.4c-.7-.7-1.9-.7-2.6 0l-15.7 14.2c-.8.4-.2 1.8.6 1.6h3.2v13.3c0 1 .9 1.9 1.9 1.8 1.1-.2 6.2.5 7-.5 1-.5.3-9.9.5-10.8h7.6v9.5c0 1 .9 1.9 1.9 1.8 1.1-.2 6.2.5 7-.5 1.2 0 .4-13.9.6-14.6h3.1c.8.1 1.3-1.1.7-1.6l-15.8-14.2zm230.6 29.5-11.6-28.3c-.6-1.5-2.9-1.5-3.5 0l-11.6 28.3c-.4.7-.2 1.6.4 2.1.5.6 1.4.7 2.1.4l10.1-4.5c.9-.9 10.6 4.3 11.6 4.5 1.5.7 3.2-1 2.5-2.5zM128.9 115.5l-.8 2.3h-.3l-3.9-11.4h-2.8l4.8 12.6.3.5h3.5l.3-.5 4.8-12.6H132l-3.1 9.1zm62.7-2.3c3.5-5.8-4.1-8.7-8.6-6.4-3.7 1.9-3.6 10.6.1 12.5 2.8 1.1 6.2.8 9 0l-.3-1.7c-3.1.2-8.7 1.3-8.6-3.4 1.9-.3 7.1.8 8.4-1zm-8.5-.9c.1-1.3.1-3 1.4-3.7 2.3-1.1 6.6-.2 5 3.1-.4 1.2-5.5.4-6.4.6zm-37.1-5.8c-2.8-.8-6.2-.3-9 .1l.3 1.9 5.6-.2c2.2-.3 2.8 1.2 2.6 3.2-2.7.2-9.3-1.3-9.1 3.2-.9 6.3 6.2 6.3 9.4 2.6l.3 2.3h2v-9.2c.1-1.5-.5-3.4-2.1-3.9zm-1.4 10c-3 1.9-7 1.8-5.2-2.8.7-.8 5.1-.2 6.1-.4v2.5l-.9.7zm15.7-10.4a10 10 0 0 0-5.9 2.5l-.2-2.2h-2.1v13.2h2.6v-9.4c1.8-1.2 6.8-3.7 6.6.3v9.1h2.6v-9.9c0-2.4-1.2-3.6-3.6-3.6z" class="st3" opacity=".8"/><path d="M11.3 891h586.2v32.8H11.3V891z" class="st0"/><path d="M11.3 833.1h586.2v57.8H11.3v-57.8z" class="st1"/><path d="M11.3 923.8h586.2" class="st2"/><path d="M108.7 864.3c3.5-5.7-4.1-8.7-8.6-6.4-3.8 2.3-3.8 10.3.1 12.5 2.7 1.2 6.1.8 8.9 0l-.2-1.7c-3.1.2-8.7 1.3-8.7-3.4 2-.3 7.1.8 8.5-1zm-8.5-.9c-1.3-5.1 8.3-5.8 6.4-.6-.5 1.2-5.4.4-6.4.6zm18.2 5.3c-1.2.1-3.2 0-3-1.7v-15.2h-2.6v15.6c-.3 3.2 3.5 3.9 5.9 3.2l-.3-1.9zm-41.2-17.4c-3.7-.4-4.3 3.4-4 6.2l-2.3.2v1.8h2.3v11h2.7v-11H80v-2h-4.1c-.4-4.6.8-4.4 4.9-4.3l.2-1.9h-3.8zm-30.4-2.7-1.6 1.7 3.2 3.2c-4.9 1.4-1.6 9.3 2.8 6.9-.6 1.3 1.8 15.4-2.6 12-1.6-3.5 2.2-12-5-10.9-.4-13.4 3.1-14.2-12.1-13.6a3.2 3.2 0 0 0-3 3v24.2h15.1v-11.3h2.3v7.5c-.1 4.9 7.7 4.9 7.6 0V857c.4-2.5-5.5-6.7-6.7-8.4zm-6.2 23.5h-9.1v-10.6h9.1v10.6zm0-13.6h-9.1v-7.6h9.1v7.6zm10.2-.5c-1.4 1.5-3.6-.8-2.1-2.2 1.4-1.3 3.4.9 2.1 2.2zm40.6 9.1c-9.1 6.1-5.7-4.7-6.3-9.6h-2.6c.1 7.3-2.1 18.8 9.3 11.3l.2 1.9h2.1v-13.2h-2.7v9.6z" class="st3"/><g class="st4"><path d="M310.5 903.7c1.4-1.4 3.6.9 2.1 2.2l-6.9 6.9c-.6.6-1.6.6-2.2 0l-6.9-6.9c-1-.9-.3-2.6 1-2.7.9-.4 6.3 6 7 6.4l5.9-5.9z" class="st3"/></g><path d="M13.3 779.9h586.2v32.8H13.3v-32.8z" class="st0"/><path d="M13.3 722.1h586.2v57.8H13.3v-57.8z" class="st1"/><path d="M13.3 812.7h586.2" class="st2"/><path d="M54.4 737H39l-12.3 12.3v15.4H56c-.7-.9 1.8-29.3-1.6-27.7zm-3 20h-4.7v-3.1h4.7v3.1zm1.5-7.7H31.1l9.2-9.3h12.6v9.3zm86.7 5c-1.8-1.7-5.5-1.3-7.5-2.6-3-4.1 6.1-2.3 7.7-2.7v-2.1c-4.1-.4-12.8-1.2-10.5 5.4.9 2.1 4.6 2.1 6.5 2.8 2.2-.1 2.9 3.1.5 3.3h-6.8l-.2 1.8c4.6.7 13.9 1.6 10.3-5.9zm-27-6.9c-9.3-4.2-13.5 7.2-7.4 12.5 9.3 4.2 13.7-7.2 7.4-12.5zm-.4 9.2c-.6 2.1-3.7 2.3-5.4 1.4-2.1-1.7-2.1-7 0-8.7 5.1-2.5 6.6 3.4 5.4 7.3zm-15-9.2c-9.4-4.2-13.7 7.3-7.4 12.5 9.3 4.2 13.5-7.2 7.4-12.5zm-.5 9.2c-.6 2.2-3.7 2.3-5.4 1.4-2.1-1.5-1.4-5-1.1-7.3.6-2.1 3.7-2.3 5.4-1.4 2.1 1.5 1.6 5 1.1 7.3zM81 746.8l.1 1.1c-1.4-.7-2.9-1.1-4.5-1.2-9.7.5-5.1 21 4.8 11.6l.2 1.9h2.1v-18.9H81v5.5zm-2.5 11.3c-4.7 1.6-4.7-4.4-4-7.5.9-2.8 4.6-1.6 6.6-1v7c-.6.5-1.9 1.2-2.6 1.5zm45.2-10.7c-1 .5-1.9 1-2.8 1.7l-.2-2.1h-2v13.2h2.6v-9.5c1.6-.7 3.8-1.7 5.6-1.5l.3-2.5c-1.2 0-2.4.1-3.5.7z" class="st3"/><g class="st4"><path d="M310.5 794.1c1.3-1.5 3.6.9 2.1 2.1l-6.9 7c-.6.5-1.6.5-2.2 0-.3-.5-7.8-7.4-7.4-8 0-1.3 1.7-2.2 2.6-1.1l5.9 5.9 5.9-5.9z" class="st3"/></g><g class="st4"><path d="M312.3 106.4c-5.4-1.9-12.1 2.3-6.9 7.4-1.4.9-1.4 3.2-.1 4.1-2.7.9-3.1 4.7-.9 6.3 3.2 1.2 8.3 1.7 10.9-.8 2.9-6.1-3.5-6.5-7.7-7-1.3-.1-1.6-1.3-.9-2.2 4.3 1.2 10.5-.8 7.9-6.3l2.1-.2v-1.4l-4.4.1zm.3 12.8c2.5 1.9-.7 4.2-3 3.6-3.6.7-5.7-1.9-2.5-4.4 1 .1 4.6.5 5.5.8zm-.6-7.1c-2.6 1.6-7.9-.1-5.2-3.6 2.7-1.5 7.9 0 5.2 3.6zm28-5.3c-1 .4-2 1-2.9 1.8l-.3-2.2h-2v13.2h2.6v-9.5c1.6-.8 3.8-1.7 5.6-1.5l.3-2.5c-1.1 0-2.3.1-3.3.7zm-11.8 9.1c-8.8 6.4-6-4.8-6.4-9.5h-2.6c0 7.2-1.9 19 9.3 11.3l.2 1.9h2.1v-13.2h-2.6v9.5zm-77.6 1.8c-1.7-.1-4.3.4-5.7-.7-2.8-3-2.8-10.2 0-13.2 2-1.2 5.4-.7 7.6-.5l.3-2.1c-7.6-1.9-13.4.7-12.6 9.3-.8 8.9 5.4 11.2 13 9l-.3-2-2.3.2zm29.2-11.6a10 10 0 0 0-5.9 2.5l-.2-2.2h-2.1v13.2h2.6v-9.4c9.4-6.3 6 4.2 6.6 9.4h2.6c-.7-3.1 2.4-14.1-3.6-13.5zm19.4-5.3c-.7.1-2.1-.3-2 .8.1.7-.4 2.5.8 2.3.6 0 2.1.3 2-.8-.1-.7.4-2.5-.8-2.3zm-33.7 6c-9.3-4.2-13.5 7.2-7.4 12.5 3 1.2 8 1.3 9.4-2.2.9-3.2 1.4-8.4-2-10.3zm-.4 9.2c-.6 2.1-3.7 2.3-5.4 1.4-2.1-1.5-1.6-5-1.1-7.3.7-2.2 3.7-2.3 5.4-1.4 2.1 1.6 1.4 5 1.1 7.3z" class="st3"/><path d="M297.4 106.4h-6.3c-.4-4.1.6-4.6 4.5-4.3v-1.9c-5.2-.4-7.7.3-7.1 6.2l-2.4.2v1.8h2.4v11h2.6v-11h6.3v11.2h2.6v-13.2h-2.6zm104.3-.3zm77.4 7.1c3.3-5.7-4.1-8.8-8.6-6.4-3.9 2.3-3.7 10.1 0 12.5 2.8 1.1 6.2.9 9 0l-.3-1.7c-3.1.2-8.6 1.3-8.6-3.4 2-.3 7.1.8 8.5-1zm-8.5-.9c-1.3-5 8.1-5.9 6.4-.6-.5 1.2-5.4.4-6.4.6zm20.8-6.2c-2.2 0-4.2 1.2-5.9 2.4l-.2-2.1h-2.2v13.2h2.6v-9.3c9.3-6.4 6.2 4.1 6.7 9.3h2.6c-.7-3.1 2.4-14.1-3.6-13.5zm-31.1 9.4-.8 2.3h-.3l-3.9-11.4h-2.8l4.8 12.6.3.5h3.5l.3-.5 4.8-12.6h-2.8l-3.1 9.1zm42.3-12.9H500v3.8l-2.4.2v1.8h2.4c.4 5.5-2.3 13.2 6.6 11.1l-.3-1.9c-1.3 0-4 .4-3.7-1.7v-7.5h4.1v-2h-4.1v-3.8zm-62.6-1.1c-2 1.2-.6 12.6-1 14.5-.3 5.3 8.8 2.9 11.8 3.4v-2c-1-.2-8.1.5-8.6-.5-.8-.6-.2-5.1-.4-6h7.8v-2.1h-7.8c.1-1-.4-4.5.4-5.3.4-.8 7.8-.2 8.6-.4V101c-2 .2-9-.6-10.8.5zm80 14.5c.3-4.4-5.6-3.6-8.3-5.1-3-4.2 6.2-2.3 7.7-2.7l.2-1.9c-2.6-.3-6.1-.4-8.7 0-3.5.8-2.8 7 .8 7.1 1.1.3 4.2.9 5.2 1.4 1.3.8.4 2.8-1 2.8h-6.8l-.2 1.8c3.4.3 11.4 2 11.1-3.4zm-146.8-15.2c-.6.1-2.1-.3-2 .8.1.6-.4 2.4.7 2.3.6-.1 2.2.3 2.1-.8-.1-.7.4-2.5-.8-2.3zm28.5 5.3a10 10 0 0 0-5.9 2.5l-.2-2.2h-2.1v13.2h2.6v-9.4c9.4-6.3 6 4.2 6.6 9.4h2.6c-.7-3.1 2.4-14.1-3.6-13.5zm-30.4.3h2.5v13.2h-2.5zm-6.9-3.8h-2.6v3.8l-2.4.2v1.8h2.4c.5 5.6-2.5 13.1 6.6 11.1l-.3-1.9c-.8-.1-2.9.3-3.3-.4-.8-.6-.2-7.8-.4-8.8h4.1v-2h-4.1v-3.8zm23 4.2c-9.3-4.2-13.5 7.2-7.4 12.5 3 1.2 8 1.3 9.4-2.2.9-3.2 1.4-8.4-2-10.3zm-.4 9.2c-.6 2.1-3.7 2.3-5.4 1.4-2.1-1.5-1.6-5-1.1-7.3.7-2.2 3.7-2.3 5.4-1.4 2.1 1.6 1.4 5 1.1 7.3zm-32.3-9.5c-2.8-.8-6.2-.3-9 .1l.2 1.9c2.8.2 9.3-1.9 8.4 3-2 .2-6.7-.8-8.3.8-4.1 6.5 3.7 10.2 8.4 5.1l.3 2.2h2.1c-.5-2.9 1.6-11.7-2.1-13.1zm-1.5 10c-2.9 2.1-7.1 1.5-5.1-2.8.5-.8 5.4-.2 6.2-.4v2.3c-.3.4-.7.7-1.1.9z" class="st3"/></g><path d="M12.1 220.9h586.2v32.8H12.1v-32.8z" class="st0"/><path d="M12.1 163h586.2v57.8H12.1V163z" class="st1"/><path d="M12.1 253.7h586.3" class="st2"/><path d="M112.5 194.1c3.5-5.6-3.9-8.5-8.6-6.4-3.8 2.2-3.8 10.3.1 12.5 2.7 1.1 6.2.9 8.9 0l-.2-1.7c-3.1.2-8.8 1.3-8.7-3.4 2-.3 7.1.8 8.5-1zm-8.5-.8c-1.3-5.2 8.2-5.9 6.4-.6-.5 1.2-5.4.4-6.4.6zm22.9 5.2c-1 .1-1.9-.7-1.7-1.7v-15.2h-2.6v15.7c-.3 3.2 3.5 4.1 5.9 3.1l-.3-1.9h-1.3zm-44.2-16.8c-.6 0-2.1-.3-2 .8.1.7-.4 2.4.8 2.3.6-.1 2.1.3 2-.7-.1-.7.4-2.6-.8-2.4zm11 14.7-.8 2.4h-.3c-.3-1.6-3.2-9.6-3.8-11.4H86c.3.3 4.7 14 5.6 13.2.8-.1 3 .4 3.3-.7l4.7-12.5h-2.8l-3.1 9zm-37.6-6.6h-1.6a13.8 13.8 0 0 0-12-12c.7-4.1-3.8-4.1-3.1 0-6.3.7-11.3 5.7-12 12-4.1-.7-4.1 3.8 0 3.1.7 6.3 5.7 11.3 12 12-.7 4.1 3.8 4.1 3.1 0 6.3-.7 11.3-5.7 12-12 2.8.7 4.7-2.2 1.6-3.1zm-7.6 9.1c-15.4 13-27.7-16.4-7.5-18.1 9.2-.3 14.2 11.8 7.5 18.1z" class="st3"/><path d="M41 185.3c-7.9-.2-8 12.4 0 12.1 7.8.2 7.8-12.1 0-12.1zm99.2 2.4c-9.6-3.9-13.5 7.2-7.4 12.6 9.5 3.9 13.4-7.1 7.4-12.6zm-.5 9.2c-.6 2.3-3.6 2.2-5.4 1.5-2.1-1.9-2.1-6.9 0-8.8 5-2.3 6.9 3.4 5.4 7.3zm-62.8 1.6c-1 .1-1.9-.7-1.8-1.7v-15.2h-2.5v15.7c-.4 3.2 3.5 4.1 5.8 3.1l-.2-1.9h-1.3zm3.9-11.1h2.6v13.2h-2.6zm120.4.3c-9.5-3.9-13.4 7.1-7.4 12.6 3 1 8 1.3 9.4-2.2.8-3.3 1.4-8.4-2-10.4zm-.4 9.2c-.6 2.2-3.7 2.2-5.4 1.5-2.1-1.6-1.7-5-1.1-7.3.5-2.3 3.6-2.2 5.4-1.5 2.1 1.6 1.4 5 1.1 7.3zm14.7-9.8a9 9 0 0 0-5.8 2.5l-.3-2.2h-2.1v13.2h2.6v-9.5c9.7-6.3 5.9 4.1 6.6 9.5h2.6c-.7-3.1 2.4-14.1-3.6-13.5zm-28.5-5.4c-.6.1-2.1-.3-2 .8.1.6-.4 2.4.7 2.3.6-.1 2.1.4 2-.7-.1-.6.4-2.5-.7-2.4zm-32.1 17.2c-6.2.7-7.3-2-6.2-7.6 1-2.7 5.1-1.7 7.3-1.9l.3-1.7c-8.2-2.7-12.7 2.7-10.1 10.6 1.7 4 7.1 3 10.4 2.2l-.3-1.8-1.4.2zm23.3-15.4h-2.7v4h-2.3v1.8h2.3c.5 5.5-2.5 13.5 6.6 11.1l-.3-1.9c-1.4-.1-3.8.4-3.6-1.7v-7.5h4.1v-1.8h-4.1v-4zm6.9 3.9h2.5v13.2h-2.5zm-16.6 0c-2.9-.6-6.2-.4-9 .2l.2 1.8c2.8.1 9.1-1.8 8.2 3-2.8.2-9.2-1.2-9.1 3.3-1 6.1 6.3 6.3 9.4 2.7l.3 2.2h2.1c-.5-3 1.6-11.7-2.1-13.2zm-1.5 10.1c-2.8 1.9-6.9 1.7-5.2-2.7.7-1 5.1-.3 6.1-.5v2.6l-.9.6z" class="st3"/><path d="M224.4 977.5c-9.2 6.5-6.1-4.8-6.6-9.8h-2.7c0 7.5-2.1 19.4 9.6 11.7l.2 1.9h2.2v-13.6h-2.7v9.8zm-42.2-.4a8 8 0 0 0-.5 2.1h-.8c0-.7-4.6-16-4.9-17.2h-2.9c.5.4 5.3 20.5 6.8 19.3.8-.2 3.5.5 3.8-.7l5.8-18.6h-2.9l-4.4 15.1zm18.2-9.3c-2.8-1-6.3-.3-9.2.1l.2 1.9c2.9.2 9.5-2 8.6 3.1-2 .2-6.8-.8-8.4.8-4.3 6.7 3.4 10.6 8.5 5.4l.4 2.2h2.1c-.6-2.9 1.8-12.3-2.2-13.5zm-1.4 10.3c-2.9 2.1-7.3 1.4-5.3-2.9.6-.8 5.4-.2 6.3-.4v2.6l-1 .7zm12.2 1.1c-1 .1-1.9-.7-1.8-1.7v-15.8h-2.7v16.4c-.2 3.3 3.6 4.2 6.1 3.1l-.3-2h-1.3zm36.8-1.3-1.6.2c-.4.6-.2 2.3 0 3 .4.3 2 .3 2.4 0 .3-.9.7-3.4-.8-3.2zm-5.8-3.2c2.6-3.7-1-8.1-5.2-7.4-7.3-1-8.6 10.5-3.6 13.7 2.9 1.2 6.3.8 9.3 0l-.3-1.8c-3.2.2-9.1 1.4-8.9-3.5 2-.3 7.3.8 8.7-1zm-8.8-.9c-1.4-5.3 8.6-6.1 6.6-.6-.5 1.2-5.6.4-6.6.6zm75.3-11.5c.1-.6-11.5-.2-11.9-.3v2.4h9.5c-.2.1-5.6 16.2-5.9 16.9h2.7c-.2-.7 7.8-19.2 5.6-19zm10.9 6c.3-7.4-8.9-7.2-8.6.2-.2 7.5 8.8 7.2 8.6-.2zm-6.7.1c-.4-5.3 5.2-5.5 4.7 0 .4 5.4-5 5.4-4.7 0zm12.8-5.6L315 981.7h1.6l10.7-18.9zm1.5 7.6c-5.7-.6-5.7 11.6-.1 11.1 2.3 0 4.3-1.9 4.3-5.7 0-3.5-1.8-5.4-4.2-5.4zm-.1 9.7c-3.1.2-3.2-8.4 0-8.2 3.4-.3 3 8.4 0 8.2zm-33.3-2.2c-2.1-.3-1.8.8-1.8 2.4-.2 1.1 1 1 1.8 1 .6-.1 1.1-.1 1-1-.1-.8.4-2.6-1-2.4zm-26.2-5.1c8-9.4.9-12.9-8.7-10.5l.2 2.1c17.3-2.3 5.4 7.9.1 14.2-.8.5-.4 2-.5 2.8h12.9v-2.6h-9.5l5.5-6zm19.5-.7a3 3 0 0 0-2-.8c3-.4 3.1-4.4 2.5-6.7-.5-2.5-3.7-2.9-5.9-2.9-6.4-1.3-9 7.8-3.5 9.6-3.7.3-3.8 5.4-2.7 8.1 2.3 3 7.1 2.3 10.3 1.6 3.3-1.1 3.2-6.6 1.3-8.9zm-9.2-5c-.6-4.4 8.2-4.5 7.5 0 .8 4.5-8.2 4.4-7.5 0zm7.4 10.8c-1.4 1.9-6 1.9-7.4 0-.5-1.9-.7-5.2 1.8-5.5 4.7-.3 7.1.1 5.6 5.5zM248 969l-1.6.2c-.4.6-.2 2.3 0 3 .4.3 2 .3 2.4 0 .3-.9.7-3.4-.8-3.2zm-79.7-100.4c-1 .1-2-.8-1.8-1.8v-15.7h-2.7v16.2c-.3 3.3 3.6 4.1 6.1 3.3l-.3-2h-1.3zm13.2-1.7c-9.3 6.4-6.1-4.7-6.6-9.8h-2.7c0 7.4-2 19.5 9.6 11.6l.2 2h2.2v-13.6h-2.7v9.8zm109.5-7.2c-5.5-.5-5.8 11.8-.1 11.2 2.3 0 4.3-1.9 4.3-5.7 0-3.5-1.8-5.5-4.2-5.5zm-.1 9.7c-3.1.3-3.3-8.4 0-8.2 3.3-.3 3.1 8.5 0 8.2zm-1.4-17.2L278.8 871h1.6l10.7-18.8zm-90.2 11.9c2.6-3.8-.9-8.1-5.2-7.4-7.2-1.1-8.7 10.5-3.6 13.6a13 13 0 0 0 9.3 0l-.3-1.7c-3.2.2-9.1 1.4-8.9-3.5 2-.3 7.2.8 8.7-1zm-8.8-1c-1.2-5.2 8.6-6 6.6-.6-.3 1.2-5.7.4-6.6.6zm-51.2 3.3c-.2.6-.5 1.5-.5 2.2h-.8c0-.8-4.6-15.9-4.9-17.2h-2.9l5.7 18.5.4.6c.8.3 3.3.3 4.1 0l.4-.6 5.8-18.5h-2.9l-4.4 15zm18.2-9.3c-2.9-.8-6.4-.3-9.3.1l.2 2c2.9-.1 9.5-1.9 8.6 3.1-2 .2-6.8-.7-8.4.9-4.2 6.9 3.8 10.6 8.7 5.2l.3 2.3h2.1c-.6-3 1.7-12.2-2.2-13.6zm-1.5 10.5c-3 2.1-7.3 1.5-5.3-2.9.7-1 5.3-.3 6.3-.5v2.7l-1 .7zm93.2-.4c-2.3-.4-2 1.8-1.6 3.3.9.2 2.8.6 2.7-.8-.1-.9.3-2.6-1.1-2.5zm13.2-5c8.1-9.1 1.1-13.1-8.5-10.4v2.1c8.3-1.3 12.8.1 5.5 7.8l-5.4 6.1c-.6.7-.4 2.2-.4 3h12.9v-2.6h-9.6l5.5-6zm20.9-4.6c.2-7.3-8.9-7.1-8.6.3.1 7.5 8.8 7.3 8.6-.3zm-6.6.2c-.5-5.4 5.1-5.4 4.7 0 .2 5.4-5.1 5.3-4.7 0zm-70.6 10.4c.1-1.3-1.9-1.2-2.6-.7-.4.3-.1 1.8-.2 2.2-.1.7.4 1 1 1 2.2.3 1.8-.9 1.8-2.5zm-1-9.9c-.8 0-2-.2-1.8 1 .1.5-.2 1.9.2 2.3.7.3 1.7.3 2.4 0 .2-.8.7-3.6-.8-3.3zm38 3.7a3.5 3.5 0 0 0-2.6-1.6c3.7-.8 3.9-7.9.3-9-2.8-.5-6.2-.9-9.1-.4l.2 2.1c1.5 0 5.7-.1 7.2.2 1.8.3 1.5 2.4 1.5 3.8-.5 3-4.7 1.9-6.8 2.1v2.1c1.5.1 4.5-.2 5.9.4 2.1 1.2 1.9 5.5-.4 6.3-1.6.6-6 .2-7.7.3l-.2 2.2c7 1.1 15.2 1.1 11.7-8.5zm-18.3-1.6c3.8-.7 4.1-8 .3-9a31 31 0 0 0-9.1-.4l.2 2.1c1.6 0 5.7 0 7.2.2 1.9.6 1.8 3.4 1 4.9-1.2 1.6-4.6.8-6.3 1v2.1c1.5.1 4.5-.2 5.9.4 2 1.2 1.8 5.4-.4 6.3-1.6.6-6.1.2-7.8.3v2.2c3.1.2 6.9 1.1 9.9-.1 3.6-1.7 3.7-9.6-.9-10zm-20.9-114 .1 1c-5.8-2.8-10.2-.8-9.9 6-.5 7.1 5.2 9.6 10.2 4.7l.3 2.1h2.1v-19.6h-2.8v5.8zm-2.6 11.7c-1.6.4-3.7.3-4.1-1.8-.3-2.4-.9-5.7 1-7.5 1.8-.7 4-.1 5.8.4v7.3c-.6.5-2 1.3-2.7 1.6zm198.5-17.5c0 .8-.1 6.2.1 6.9-5.8-2.9-10.4-.9-10 5.9-.4 7 5.1 9.5 10.3 4.8l.2 2h2.1v-19.6h-2.7zm-2.7 17.5c-1.6.4-3.8.1-4.1-1.8-.3-2.4-.9-5.6 1-7.5 1.8-.7 4-.1 5.8.4v7.3c-.6.5-2 1.3-2.7 1.6zm-176.5-11.2c-3.1-1.2-8.2-1.3-9.7 2.3-1 3.4-1.5 8.7 2.1 10.7 3.1 1.1 8.2 1.3 9.7-2.3.9-3.4 1.4-8.7-2.1-10.7zm-.4 9.5c-.5 2.4-3.8 2.2-5.6 1.6-2.2-1.7-1.5-5.2-1.2-7.6.7-2.2 3.8-2.4 5.6-1.5 2.3 1.6 1.4 5.1 1.2 7.5zm-43.4 1.7c-1.1.2-2-.7-1.9-1.8v-15.7h-2.7V757c0 3.6 3.5 4 6.2 3.1l-.4-2h-1.2zm-13.4-17-.6-.2h-2.9l-.6.2c-.2.2-.4.4-.4.6l-6.1 18.5h2.8l1.8-5.8h7.8l1.8 5.8h2.9l-6.1-18.5-.4-.6zm-5.2 10.9c.3-1.2 2.6-7.8 2.7-8.9h.8l2.8 8.9h-6.3zm27 6.1c-1 .1-1.9-.8-1.8-1.8v-15.7h-2.7V757c-.1 3.4 3.5 4.1 6.1 3.1l-.3-2h-1.3zm201.1-4.5c2.4-3.7-.3-7.9-5.1-7.4-2.2 0-5 .6-5.8 2.9-2.9 9.7 2.3 13.3 11.4 10.8l-.3-1.8a77 77 0 0 1-4.8.2c-2.4.3-4.1-1.3-4.1-3.7 2-.2 7.4.7 8.7-1zm-8.7-.9c-.4-4 2.8-5.2 6.1-3.8 1.2.9 1.2 3.9-.7 3.8h-5.4zm-82.1-5.8-2.8 1.7-.3-2h-2.1v13.6h2.7v-9.8c1.7-.8 3.9-1.8 5.8-1.6l.3-2.6c-1.2 0-2.5.2-3.6.7zm16.2.5c-2.3-1.8-9-2-10.3 1.7-1.1 3.3-1.5 8.8 2.1 10.7 2.8 1.3 6.4.9 9.3.1l-.3-1.8a77 77 0 0 1-4.8.2c-2.3.3-4.2-1.3-4.1-3.7h6c1 .1 2-.3 2.7-1 1.3-1.8 1.2-4.7-.6-6.2zm-1.6 4.7c-.1.4-.5.6-1.2.6h-5.4c.1-1.4.2-3.1 1.5-3.9 2.5-1.1 6.7-.2 5.1 3.3zm31.1 6c-1.1.1-2-.7-1.9-1.8v-15.7h-2.7V757c-.2 3.6 3.5 4 6.2 3.1l-.3-2h-1.3zm13.6-11.2c-3.2-1.1-8.2-1.3-9.8 2.3-.9 3.4-1.4 8.6 2.1 10.7 3.1 1.2 8.3 1.3 9.8-2.3.9-3.4 1.4-8.6-2.1-10.7zm-.5 9.5c-.5 2.4-3.8 2.2-5.6 1.6-2.1-1.7-1.6-5.2-1.1-7.6.6-2.3 3.8-2.4 5.6-1.5 2.1 1.7 1.6 5.1 1.1 7.5zm-115.6-7.2c-1.5-3.7-6.6-3.4-9.7-2.3-3.5 2-3 7.3-2.1 10.7 1.5 3.7 6.7 3.5 9.8 2.3 3.4-2.1 3.1-7.3 2-10.7zm-2.5 7.2c-.5 2.4-3.8 2.2-5.6 1.6-2.1-1.7-1.6-5.2-1.1-7.6.6-2.3 3.7-2.4 5.5-1.5 2.3 1.6 1.4 5.1 1.2 7.5zm95.5 1.9c-1.5-.1-3.6.2-5-.4-2.4-1.4-1.8-5.2-1.3-7.5.9-2.8 5.3-1.7 7.5-1.9l.3-1.7c-3.4-.9-8.8-1.3-10.5 2.5-2.3 9.2 1.4 13.3 10.7 10.6l-.2-1.8-1.5.2zm-69.7-5.6c-1.1-.2-4.4-.9-5.3-1.5-.6-.3-.7-1.8-.2-2.4.4-.8 7.4-.2 8.1-.4l.2-1.9c-1.2-.4-4.6-.3-5.8-.3-2.6-.2-5.8.6-5.5 3.8-.4 4.6 5.7 3.9 8.6 5.3 1 1 .5 2.9-1 2.9H254l-.2 1.8c2.9.5 6 .6 8.9.2 3.8-.8 3.3-7.3-.7-7.5zm-13.9-5.8-2.8 1.7-.3-2h-2.1v13.6h2.7v-9.8c1.7-.8 3.9-1.8 5.8-1.6l.3-2.6c-1.2 0-2.5.2-3.6.7zm36-.3c-2.9-.8-6.5-.4-9.4.2l.3 1.9c1.4-.1 4.4-.3 5.8-.2 2.7-.2 2.8 1.3 2.7 3.3-2 .2-6.8-.7-8.4.9-1.2.9-1 2.6-1 4 .1 5.3 7.2 4.4 9.7 1.3l.3 2.2h2.1v-9.5c.1-1.6-.5-3.5-2.1-4.1zm-3.5 11.4c-1.6.4-3.9.6-3.8-1.7 0-.7 0-1.5.4-2.1.7-.9 5.3-.4 6.3-.5v2.7c-.8.8-1.8 1.3-2.9 1.6zm88.2-5.3c-1.1-.3-4.4-1-5.4-1.5-.9-.8-.6-2.9.8-2.8h7.2l.2-1.9-1.9-.3c-2 .1-5.2-.2-7.1.3-2.8.5-3.1 5.1-1 6.6 1.8 1.3 5.3 1.3 7.2 2.2 1.2.9.7 2.9-1 2.9h-7.1l-.2 1.8c2.9.5 6 .6 8.9.2 3.9-.7 3.3-7.3-.6-7.5zM267.9 197.3c-.4 0-1.2-.1-1.4.2-.4.7-.3 2.1 0 2.9.8.3 2.5.5 2.4-.8 0-.8.3-2.5-1-2.3zm4.3-14.8c-2.9-1.7-6.9-1.1-10-.6v1.8c16.6-.4 4.5 4 4.3 11.2h2.2c-.2-4.6 8.2-7.5 3.5-12.4zm-33.3 14.8c-2-.2-1.6.8-1.6 2.3-.2 1.4 1.5 1.1 2.3.8.2-.8.7-3.2-.7-3.1zm7.6 8.1h2l3.6-8.6h-3.3zm-7.5-23.9a24 24 0 0 0-6 .4l.2 1.8c16.6-.4 4.6 3.9 4.2 11.2h2.2c0-3.1 3-4.8 4.4-7.2 1.9-3.5-1.4-6.8-5-6.2z" class="st11" opacity=".5"/><g class="st4"><path d="M310.3 233.7c1.3-1.5 3.5.8 2.1 2.1l-7 6.9c-.5.7-1.6.6-2.1 0l-7-6.9c-1.3-1.3.7-3.5 2.1-2.2l6 6 5.9-5.9z" class="st3"/></g></svg>