<svg xmlns="http://www.w3.org/2000/svg" xml:space="preserve" id="Layer_1" x="0" y="0" version="1.1" viewBox="0 0 612 1127.9"><style>.st0{fill:#fff}.st1{fill:none;stroke:#14588c;stroke-width:2;stroke-miterlimit:10}.st5{fill:#ec1c24}</style><path d="M17.6 767.5c.5 0 1.8 0 2.3-.2l-.3-1.8c-1.1.1-2.9 0-2.7-1.5v-14h-2.4v14.4a2.8 2.8 0 0 0 3.1 3.1zm207.2 15.8c-2.7-2.6-8-2.7-10.7 0a15 15 0 0 0 0 14c1.9 2.4 5.8 2.1 8.5 1.5 5.1-2 4.3-11.5 2.2-15.5zm-1.5 11.1c-.6 2.7-4.3 3.5-6.4 2-2.7-2.4-1.8-6.9-1.4-10.1.5-2.9 4.3-3.3 6.5-2.1 2.5 2.5 1.8 7 1.3 10.2zM30.7 755.6c-2.8-1-7.3-1.2-8.7 2-.9 3-1.3 7.8 1.9 9.5 2.8 1 7.3 1.2 8.6-2 .9-3 1.3-7.6-1.8-9.5zm-.4 8.4c-.6 2.1-3.4 2.1-5 1.4-1.9-1.5-1.9-6.6 0-8.1 5-2 6 2.9 5 6.7zm-15.9 27zm8.7-55.4c2.4 1.1 5.2-.1 6.9-1.9l.2 2h1.9c-.3-9.9 2.6-14.1-10.2-11.9l.2 1.7 5.2-.2c2.2-.2 2.5 1.3 2.4 3-2.6.2-8.5-1.2-8.4 3-.1 1.6.1 3.6 1.8 4.3zm.7-3.3c0-1.1 0-2.4 1.5-2.3h4.4v2.3c-1.2 1.3-6 3.1-5.9 0zm-6.2 3.5c.5 0 1.8 0 2.3-.2l-.3-1.7c-1.1.1-2.9 0-2.7-1.6v-13.9h-2.4v14.3a2.9 2.9 0 0 0 3.1 3.1zM43.1 757c1.1-.2 1.7 1 1.6 2v8.4h2.4v-9.1c.1-5.1-6.3-3.3-8.7-1v.3l-.2-2.3h-2v12.1h2.4v-8.6c1.2-.7 3-1.9 4.5-1.8zm16.4 24.8c-.9.2-3.6-.6-3.8.8-.5 1.7-3.3 10.9-3.6 12.4h-.4c-.3-1.5-3.1-10.8-3.6-12.4-.2-1.4-2.9-.6-3.8-.8-.6 0-.9.3-1 1l-.6 16.1h2.4l.6-15.1h.5l3.6 12.3c.3 1.2 2.3.7 3.1.8.5 0 1-.3 1.1-.8l3.6-12.3h.5l.6 15.1h2.5l-.7-16.1c-.1-.7-.4-1-1-1zm-25.8 4c-7.1-11.6-24.5-1.5-17.9 10.4 7 11.6 24.4 1.5 17.9-10.4zm-.7 8.8c-5.4 11.3-21.9 3-16-8.2 6-9.7 20-2.2 16 8.2zm183.1-26.8c5.4.7 6.4-5.2 5.1-9.2-1.3-3.3-6.7-2.9-8.7-.4.1-6.3 2.1-6.3 7.7-6.1l.2-1.7a14 14 0 0 0-3.5-.4c-5.6-.5-7 4.7-6.7 9.3-.2 4.1.6 9.2 5.9 8.5zm-3.6-8.1c.9-.8 2.4-1.5 3.6-1.5 3.3-.3 3.4 3.4 2.9 5.8-.6 2.3-4.9 2.5-5.9.4-.6-1.1-.5-3.4-.6-4.7zm-8.9.2c2.2-2.2 4.1-5.6 2.4-8.6-1.6-1.6-4.2-1.1-6.3-1.4l-3.8.6.2 1.9c1.1-.2 3.8-.2 5-.2.7.2 2.1 0 2.6.6 2.3 3.3-5.8 9.5-7.5 12.2-.7.4-.3 1.9-.4 2.5h11.5v-2.3h-8.5l4.8-5.3z" class="st0"/><path d="m28.5 794.5-.2-.1c-1.8 1.3-4.7 1.5-6.3-.2-3.3-4.3 1.1-10.2 6-7h.7c.2-.1.7-.9.8-1.1-.6-.9-2-1.4-3-1.7-13.6-.9-7.6 19.6 3.1 11l-.9-.9h-.2zm232.9-11.7c-.1-.7-.4-1-1-1-.9.2-3.6-.6-3.8.8-.5 1.7-3.3 10.9-3.6 12.4h-.4c-.3-1.5-3.1-10.8-3.6-12.4-.3-1.3-2.9-.6-3.8-.8-.6 0-.9.3-1 1l-.6 16.1h2.4l.6-15.1h.5l3.6 12.3c.1.5.6.9 1.1.8.8-.1 2.8.4 3.1-.8l3.6-12.3h.5l.6 15.1h2.5l-.7-16.1zm-132.8-51.1c.2 4.9 7.4 5.6 10.2 2.8 1.4-2.6 1.8-7.5-.9-9.4-2.3-1.2-5.5-.8-7.2 1.4-.2-6.3 2.2-6.4 7.7-6.2l.2-1.7c-.9-.2-2.6-.4-3.5-.3-7.6-.8-6.9 8.3-6.5 13.4zm2.9-4.3c1.5-1.2 4.8-1.6 5.6.6.4 1.8.7 4.3-.8 5.6-5.1 1.7-5.7-1.4-5.6-5.7l.8-.5zm105.6 62.1c-1.2-.5-4.1-.7-5-1.7-.8-1.1-.8-3 .2-3.9.6-.6 6.7-.2 7.5-.3l.2-1.7c-1.5-.5-3.6-.4-5.2-.4-1.2 0-3.4-.2-4.4.6-1.8 1.6-1.7 4.9-.5 6.9 1.4 2.1 5.2 2.1 7.3 3.1 1.3.9 1.4 4.2-.4 4.6-1.3.3-5.9.2-7.3.2l-.2 1.8c2.5.6 5.5.4 8.1.2 4.7-.5 4.2-8.9-.3-9.4zM79.3 736c1.8.1 3.4-.7 4.7-1.9l.2 1.6h1.9v-17.3h-2.5v6c-10.7-5.9-11 12.1-4.3 11.6zm-1.5-9.1c.6-2.6 4.1-1.4 5.9-1v6.6c-5.6 4.1-7-.5-5.9-5.6zm67.1 8.7c.4-.4.1-1.6.2-2.1-.2-.5-.2-.9-.9-.8-.6 0-1.7-.2-1.6.8 0 .5-.1 1.7.2 2.1h2.1zm52.2-14.3-.3.7-4.7 13.7h2.4l5.4-15.5c.3-1-.4-1.5-1.3-1.6h-9.7v2.1h8.4l-.2.6zm-37.6 12.2h-8.4c1.4-1.7 5.6-5.8 6.6-7.6 2.7-3.9 1-8.1-4.1-7.6v.3h-3.3l-2.1.5.2 1.8c1.2-.3 5.3-.2 6.6-.2 5.2 1.9-5.1 10.4-6.5 12.6-.2.1-.3.3-.3.5-.2.4-.1 1.6-.1 2h11.4v-2.3zm-114.1-9.9h2.4v12.1h-2.4zm7.2 8.9c-.4 3.4 3.6 3.7 6 3.1l-.3-1.7c-1.2 0-3.6.3-3.3-1.6v-6.9h3.7v-1.8H55v-3.5h-2.4v3.5l-2.2.2v1.6h2.2v7.1zm-6.5-11.2c.6-.1 1.9.3 1.8-.7-.1-.6.4-2.2-.7-2.2-.6 0-2-.3-1.9.8.1.7-.4 2.2.8 2.1zm-9.4 11.2c-.3 3.4 3.5 3.7 6 3.1l-.2-1.7c-1.3-.1-3.6.4-3.4-1.6v-6.9h3.8v-1.8h-3.8v-3.5h-2.4v3.5l-2.2.2v1.6h2.2v7.1zm30.6 18.3c.1-1.1-1.5-.6-2.1-.7-.8.2-.4 1.6-.5 2.2 0 1 1.4.6 2 .7.9-.1.5-1.6.6-2.2zm-2.5 4.5h2.4v12.1h-2.4zm107.1-20.9c1.6-2 1.5-4.9 1.6-7.4 0-4.3 0-9.2-5.8-8.7-5.9-1.1-7.5 7.4-3.8 10.7 2.2 1.3 5.5.9 7.2-1.2.2 6.4-2.6 6.3-8 6.1l-.2 1.7c2.8.5 6.8 1.1 9-1.2zm-1.6-7.5c-4.6 2.5-6.5-.3-5.6-4.9.6-2 3.3-2.1 4.9-1.4 1.9 1 1.3 3.9 1.5 5.7l-.8.6zm-105.8 9.2c1.9 0 3.7-1 5.2-2.1l.1 1.7h2v-12.1h-2.4v8.7c-1.6 1.3-6 3.3-5.9-.3v-8.4h-2.4v9.1c0 2.3 1.1 3.4 3.4 3.4zm60.4 21.2c.1-1.3-1.6-.9-2.3-.7-.3.7-.3 2 0 2.7.6.2 1.5.4 2.1 0 .4-.3.1-1.6.2-2zm-.2 7.2c-.6-.4-1.5-.2-2.1 0-.3.7-.3 2 0 2.7.7.2 2.4.6 2.3-.7-.1-.4.2-1.7-.2-2zm-69-9.5c-1.6 0-3.9 0-4.8 1.6-.9 1.7-.8 4.4 1.1 5.5-1.2.8-1.3 2.9-.2 3.8-2.4.8-2.7 4.3-.7 5.8 2.4 1.1 8.2 1.4 10-.7 2.6-5.9-3-5.9-7.1-6.4-1.1-.1-1.3-1.2-.8-2 4.2 1 9.5-.5 7.3-5.8l1.8-.2.2-1.2c-1.9.1-5-.3-6.8-.4zm2.9 12.1c1.4.6.9 2.9-.6 3.2h-4.4c-2.1-.3-1.8-3.2-.2-4 .9.2 4.3.5 5.2.8zm-.6-6.6c-2.5 1.4-7.3 0-4.8-3.3 2.4-1.5 7.6 0 4.8 3.3zm60.9 1c2.3-3.3-.9-7.2-4.6-6.5-1.9 0-4.3.5-5.1 2.5-1 3.1-1.3 7.7 1.9 9.6 2.5 1 5.6.8 8.2 0l-.2-1.6c-2.9.2-8 1.2-8-3.1 1.8-.2 6.5.7 7.8-.9zm-7.8-.8c.1-1.2.1-2.8 1.3-3.4 2.2-1.1 5.9-.1 4.6 2.9-.5 1-5 .3-5.9.5zm4.9 26.4c-2.8-1-7.3-1.2-8.7 2-.9 3-1.3 7.6 1.8 9.5 2.8 1 7.3 1.2 8.7-2 .9-3 1.3-7.6-1.8-9.5zm-.5 8.4c-.5 2.1-3.3 2.1-4.9 1.4-1.9-1.5-1.4-4.6-1-6.7.5-2.1 3.3-2.2 4.9-1.4 1.9 1.5 1.4 4.6 1 6.7zm60.9-37.1c-1.8-1.6-4.5-1.4-6.7-1.7l.3-4.4h7.3v-2l-9.3.1-.4 7.4c-.1 1.2 1.4 1 2.2 1 1.2.1 3.3.1 4.3.7 2 1 1.6 4.7-.2 5.7-2 .6-4.6.3-6.7 0l-.3 2c2.5.5 5.7 1 8.1 0 3.3-1.2 3.8-6.6 1.4-8.8zm-44.5 28.4h-2.6l-3 4.9h-.6l-3-4.9h-2.5l3.7 5.9-4 6.2h2.6l3.3-5.4h.4l3.4 5.4h2.6l-4.1-6.2zm-7.2-53.1c.9-2.4.7-6.8-2.5-7.1 3.4-.7 3.4-7.1.2-8-1.6-.4-3.8-.3-5.5-.7l-2.5.3.2 1.9c1.4 0 5.1 0 6.4.2 1.7.4 1.5 3 .9 4.3-1.1 1.5-4.1.7-5.7.9v1.9c1.4.1 4.1-.3 5.3.4 1.8.9 1.6 4.7-.3 5.5-1.5.5-5.3.2-6.9.3l-.2 1.9c3.3.1 8.6 1.8 10.6-1.8zm30 33.7c3.6-1.1 3.5-5.7 3.6-8.8.1-7.3-1.5-10-9.2-8.1-2.7 1.6-2.5 5.5-1.8 8.2 1.1 3.6 6.6 3.5 8.6.8.2 6.5-2.6 6.2-8 6l-.2 1.8c2.2.5 4.8.6 7 .1zm.4-8.8c-4 2.7-6.9-.8-5.5-4.9.5-2.1 3.3-2 4.9-1.5 1.9 1.2 1.2 3.9 1.4 5.7a5 5 0 0 1-.8.7zm-1.8 37.9c-.8-.1-.2-14.1-.4-14.7h-2.6v14.6a3 3 0 0 0 3.5 2.4h6.8v-2c-.9-.1-6.6.3-7.3-.3zm9.9-32.2c-2-.2-1.6.7-1.6 2.2-.1 1.3 1.6.9 2.3.7.3-.7.3-2 0-2.7l-.7-.2zm-18.9 31.2c-2.1 2-6.7 2.5-7.2-1.2-.3-3-.9-6.6.7-9.4 1.6-2.1 5.9-1.1 8.2-1.3l.3-1.8-1.5-.4h-3.4c-5.5-.6-7.7 4.1-7.3 8.9-.7 7 4.3 12 10.5 6.9l.3 1.7h1.9V789h-2.5v6.5zm-5.5-27.8c5.1.7 7.4-5.9 4.3-9.3-1.8-1.6-4.5-1.4-6.7-1.7l.2-4.4h7.2v-2l-9.1.1-.4 7.4c-.3 1.2 1.5 1 2.2 1 1.2.1 3.3.1 4.3.7 1.8 1.1 1.6 4.7-.2 5.7-2.1.5-4.6.4-6.7 0l-.3 2c1.4.3 3.8.6 5.2.5zm29.1 24h7.5v1.8h-7.5zM184 722l-4.7 13.7h2.4l5.4-15.5c.3-1-.4-1.5-1.3-1.6h-9.7v2.1h8.5c-.3.3-.4.9-.6 1.3zm-98.4 64.5a7 7 0 0 0-4.9 2.2l-.2-1.9h-2v17H81l-.1-5.8c11.3 6.4 11-12.3 4.7-11.5zm1.5 9.1c-.8 2.6-4.3 1.4-6.2.9v-6.3c5.6-4.4 7.2.1 6.2 5.4zm111-1.1-.2-.1c-1.8 1.3-4.7 1.5-6.3-.2-3.3-4.3 1.1-10.2 6-7h.7c.2-.1.7-.9.8-1.1-.6-.9-2-1.4-3-1.7-13.6-.9-7.6 19.6 3.1 11l-.9-.9h-.2zm-93.5-69.7c-.6 0-1.7-.2-1.6.8 0 .5-.1 1.7.2 2.1h2.1c.4-.4.1-1.6.2-2.1-.2-.5-.2-.9-.9-.8zm-30.2 26.9h-2.5v3.7h-2.1v1.7h2.1v7.2c-.1 3.5 3.5 3.6 6.1 3l-.3-1.8c-1.2-.1-3.8.5-3.3-1.5v-6.9h3.7v-1.7h-3.7v-3.7z" class="st0"/><path d="M203.3 785.8c-7.2-11.5-24.4-1.6-17.9 10.4 7 11.6 24.4 1.5 17.9-10.4zm-.7 8.8c-5.4 11.3-21.9 3-16-8.2 6-9.7 20-2.2 16 8.2zm-129.7-7.8c-2.6-.7-5.6-.2-8.2.1l.2 1.7 5.3-.2c2-.2 2.6 1.2 2.4 3-1.8.2-6.2-.6-7.6.8-1 .8-.9 2.3-.9 3.5 0 4.6 6.5 4 8.6 1.1l.3 2.1h1.9v-8.4c.1-1.5-.5-3.2-2-3.7zm-1.3 9.3c-1.4 1-5.1 2.1-5.1-.7 0-.6-.2-1.4.4-1.8.6-.9 4.8-.3 5.7-.5v2.2l-1 .8zm17.1-32c-1.6 1.1-5.9 3.1-5.8-.4v-8.4h-2.4v9.1c-.1 4.9 6.1 3.5 8.5 1.3l.2 1.7h2v-12.1h-2.5v8.8zm100.2 3.3h2.4v-4.1l2.2-.3v-1.7h-2.2v-7.8h-1.9l-.5 2.9v4.9c-.5-.1-6 .2-6.2-.2a.6.6 0 0 1 .1-.7l4.6-10.1H185l-4.8 10.3c-.3.8-.2 1.8.5 2.3.6.8 7.3.2 8.2.4v4.1zM103 755.1v.9c-1.2-.7-2.7-1-4.1-1-5.5 0-5.5 7.6-3.7 11.3 1.9 2.8 6.2 1.6 8.2-.6l.2 1.7h1.9V750H103v5.1zm-1.1 10c-1.1.9-2.8.8-4 .3-1.6-1.4-1.6-6.6 0-8 .9-.5 2.6-.3 3.6-.3l1.6.5v6.7l-1.2.8zm2.7-32.4c-.6 0-1.7-.2-1.6.8 0 .5-.1 1.7.2 2.1h2.1c.4-.4.1-1.6.2-2.1-.2-.5-.2-.9-.9-.8zm-4.9 53.8c-1.7.1-3.5.8-4.6 2.2.5-1.8.2-5.3.3-7.2H93v16.9h.1l-.1.1 2.8.7c1.6-.1 4 .2 5.5-.4 4.4-1.8 3.9-13.1-1.6-12.3zm1.6 8.9c-.4 2.3-3.4 1.9-5.1 1.9l-.9-.3v-6.8c5-4.4 7.6.1 6 5.2zM184 791zm-87.3-54.9c.8-.1 2.4-.4 3.2-.7l-.2-1.5c-2.9.2-8 1.2-7.9-3.2 1.8-.2 6.4.7 7.7-.9 1.1-1.6 1-4.1-.5-5.5-4.5-2.6-10.6-.3-9.8 5.5-.3 5.1 2.8 6.7 7.5 6.3zM93 725.6c1.6-.7 5-.8 4.8 1.7.1.8-.3 1.8-1.3 1.7h-4.8c.1-1.2.1-2.7 1.3-3.4z" class="st0"/><path d="M114 999H56.9a8 8 0 0 0-7 4l-28.6 49.4a8.3 8.3 0 0 0 0 8.1l28.6 49.5a8 8 0 0 0 7 4H114c2.9 0 5.5-1.5 7-4l28.5-49.5a7.9 7.9 0 0 0 0-8.1L121 1003a8.1 8.1 0 0 0-7-4zm220.4 0h-57.1a8 8 0 0 0-7 4l-28.6 49.4a8.3 8.3 0 0 0 0 8.1l28.6 49.5a8 8 0 0 0 7 4h57.1c2.9 0 5.5-1.5 7-4l28.5-49.5a7.9 7.9 0 0 0 0-8.1l-28.5-49.4a8.1 8.1 0 0 0-7-4zm220.4 0h-57.1a8 8 0 0 0-7 4l-28.6 49.4a8.3 8.3 0 0 0 0 8.1l28.6 49.5a8 8 0 0 0 7 4h57.1c2.9 0 5.5-1.5 7-4l28.5-49.5a7.9 7.9 0 0 0 0-8.1l-28.5-49.4a8.1 8.1 0 0 0-7-4z" class="st1"/><path fill="#14588c" d="M230.8 1063.9a7.9 7.9 0 0 0-7-4.1h-57.1a8 8 0 0 0-7 4.1l-28.5 49.4a8 8 0 0 0-1.1 4h130.4a8 8 0 0 0-1.1-4l-28.6-49.4zm220.3 0a8 8 0 0 0-7-4.1H387a7.9 7.9 0 0 0-7 4.1l-28.6 49.4a8 8 0 0 0-1 4h130.3a8 8 0 0 0-1.1-4l-28.5-49.4z" opacity=".5"/><path d="m70.4 1049.4 9.7 5.4c-1 4 1.3 8.2 5.4 9.2v10.6l-13.1-7.3a3.4 3.4 0 0 1-2-3.3v-14.6zm18.9-10.6 13.2 7.4-9.6 5.3a7.7 7.7 0 0 0-11 0l-9.5-5.3 13.2-7.4c1.1-.7 2.6-.7 3.7 0zm-4.5 20.6c-3.6-3.3 2-8.9 5.3-5.3 3.5 3.4-1.9 8.8-5.3 5.3zm4.5 15.2V1064c4-.8 6.7-5.3 5.4-9.2l9.7-5.4v14.6c.1 1.4-.7 2.7-1.9 3.3l-13.2 7.3zm214.6-4.6c0 1-.9 1.9-1.9 1.8h-5.6c-1 .1-2-.8-2-1.8v-13.3h-3.1c-.4.1-.8-.2-.9-.6a.8.8 0 0 1 .2-1l15.8-14.2c.7-.7 1.9-.7 2.6 0l15.7 14.2c.4.2.5.6.3 1-.1.4-.5.7-.9.6h-3.2v13.3c0 1-.9 1.9-1.9 1.8h-5.6c-1 .1-2-.8-1.9-1.8v-9.5h-7.6v9.5zm224.1-27.9 11.6 28.3c.3.7.2 1.6-.4 2.1-.6.6-1.4.7-2.1.4l-10.1-4.5a2 2 0 0 0-1.5 0l-10.1 4.5c-1.5.8-3.2-1-2.6-2.5l11.7-28.3c.6-1.5 2.9-1.5 3.5 0z" class="st0"/><path fill="none" stroke="#14588c" stroke-miterlimit="10" stroke-width="1.9" d="M20.7 881H591a7 7 0 0 1 7 7v92.2a7 7 0 0 1-7 7H20.7a7 7 0 0 1-7-7V888a7 7 0 0 1 7-7zm-2.6 4.1v98.1m560.5-47.4H18.1"/><path d="M292.9 920.2h5.7v-1.7H295v-20.1h3.6v-1.6h-5.7zm-107.1-10.7c3.5-.6 3.6-7.1.3-8-2.5-.4-5.6-.6-8.1-.2l.2 1.9c1.4 0 5.1 0 6.4.2 2.1.3 1.8 4.3.1 5-1 .4-3.7.1-4.8.2v1.9c1.4.1 4-.3 5.3.4 1.8 1 1.7 4.9-.4 5.6-2 .6-4.9.3-6.9.1l-.2 2c2.8.2 6.2.8 8.9-.2 3.3-1.4 3.2-8.6-.8-8.9zm117 3.7c-.8 0-2 0-1.9 1.1 0 .5-.1 1.9.3 2.3.4.5 1.9.4 2.5 0 .3-.9.7-3.5-.9-3.4zm-134.6-5.5c-.4 0-1.2-.1-1.4.2-.4.6-.3 2 0 2.7.7.3 2.5.5 2.3-.7-.1-.7.3-2.4-.9-2.2zm-22-1.2h2.4v12.2h-2.4zm-112.6-7 .4 1.9 4.7-1.4-.2.9v15.8h2.8v-19.2h-2.8zm127 6.8v1a8.7 8.7 0 0 0-4.1-1.1c-8.8.9-4.3 19.3 4.5 10.9l.2 1.6h1.9v-17.5h-2.5v5.1zm-2.2 10.6c-4.7 1.2-5-5.9-2.8-8.4 1.5-.6 3.6-.1 5.1.3v6.8c-.7.4-1.5 1.1-2.3 1.3zm151.2-3.7c-.8-.1-2.1 0-1.9 1.1.1.9-.4 2.8 1.1 2.6.8 0 2 0 1.9-1.1 0-.9.3-2.7-1.1-2.6zm-161.7-11.9c-.6.1-1.9-.3-1.8.7.1.6-.4 2.4.7 2.2.6 0 1.9.3 1.9-.7-.1-.7.4-2.3-.8-2.2zm21 14.5c-.6-.4-1.5-.2-2.1 0-.3.7-.3 2 0 2.7.2.3 1 .2 1.4.2.7-.1.9-.1.9-.9-.1-.4.2-1.7-.2-2zM489.1 891H475a3.1 3.1 0 0 0-3.1 3.2V913c0 1.7 1.4 3.1 3.1 3.1h14.1c1.7 0 3.1-1.4 3.1-3.1v-18.8a3.1 3.1 0 0 0-3.1-3.2zm0 22H475v-18.8h14.1V913z" class="st0"/><path d="M484.4 919.2h-15.7v-20.3c.1-2-3.1-2-3.1 0v20.3c-.1 1.7 1.4 3.3 3.1 3.2h15.7c2.1 0 2.1-3.2 0-3.2zm41.7-11.4c-.5 1-5.8.3-6.7.5-2.6 0-1.1-5.7-1.5-7.1-.8-.6 8.5-9 8.7-9.5-8-3-17.1 3.7-16.6 12.2 0 5 3.9 10.9 11.5 17.6.5.5 1.6.6 2.1 0 9.3-8.6 13.1-13.6 10.8-22l-8.3 8.3zm-208.9 5.7c-.6-.5-1.9-.5-2.5 0-.3.5-.3 2.6 0 3.1.6.5 1.9.5 2.5 0 .3-.5.3-2.6 0-3.1zm219-22.5c-1.5-2-3-1.8-4.5.1l3.4 3.3c.9-.8 2.4-2.2 1.1-3.4z" class="st0"/><path d="M521 905.1h3.3l9.7-9.6-3.4-3.3-9.6 9.6zm-187 2.1c-.6-.5-1.3-.9-2.1-.9 5.5-1.7 3.3-11.3-3.6-9.9-6.6-1.4-9.4 7.8-3.7 9.9-3.8.5-3.8 5.7-2.7 8.5 2.2 3.2 7.4 2.4 10.7 1.7 3.5-1.1 3.4-6.8 1.4-9.3zm-9.6-5.2c-.9-4.7 8.7-4.7 7.8 0 .8 4.6-8.6 4.6-7.8 0zm7.8 11.2c-1.5 2-6.4 2.1-7.8 0-.8-1.9-.7-5.3 1.8-5.7 4.9-.3 7.3 0 6 5.7zm9.6.3c-.6-.5-1.9-.5-2.5 0-.3.8-.3 2.3 0 3.1.6.5 1.9.5 2.5 0 .3-.5.3-2.6 0-3.1zm12.7-.3c-.8 0-2 0-1.9 1.1 0 .9-.3 2.7 1.1 2.6.8 0 2 0 1.9-1.1 0-.9.3-2.7-1.1-2.6zm-6.7 0c-.8 0-2.1-.1-2 1.1 0 .5-.1 1.9.3 2.3.4.5 2 .4 2.5 0 .3-.9.7-3.4-.8-3.4zm10.1-14.8h3.7v20.1h-3.7v1.6h5.7v-23.3h-5.7z" class="st0"/><path d="M574.8 894.2c.4 0 .8.2 1.1.5.3.2.5.6.5 1s-.2.8-.5 1.1c-.3.3-.7.5-1.1.5H556c-.4 0-.8-.2-1.1-.5-.3-.3-.5-.7-.5-1.1 0-.4.2-.8.5-1 .3-.3.7-.5 1.1-.5h3.9l1.1-1.1c.3-.3.7-.5 1.1-.5h6.6c.4 0 .8.2 1.1.5l1.1 1.1h3.9zM556 917.7V902c0-1.7 1.4-3.1 3.1-3.1h12.6c1.7 0 3.1 1.4 3.1 3.1v15.7c0 .8-.3 1.6-.9 2.2-.6.6-1.4.9-2.2.9h-12.6c-.8 0-1.6-.3-2.2-.9-.6-.6-.9-1.4-.9-2.2z" class="st5"/><path d="M190.7 954.5h-1.9c-.4 1.7-.4 6-.4 7.8-.4 0-6 .1-6.2-.2-.8-.1 4.7-10.5 4.7-10.9h-2.5c-.2 1.7-6.7 11.3-4.3 12.7.6.8 7.4.3 8.3.4v4.1h2.3v-4.1l2.2-.3v-1.7h-2.2v-7.8zm104.2 15.4h5.7v-1.7H297v-20.1h3.6v-1.6h-5.7zm-145-18.9c-.6.1-1.9-.3-1.8.7.1.6-.4 2.4.7 2.2.6 0 1.9.3 1.9-.7-.1-.7.4-2.3-.8-2.2zm154.9 11.9c-.8 0-2 0-1.9 1.1 0 .5-.1 1.9.3 2.3.4.5 1.9.4 2.5 0 .3-.9.7-3.5-.9-3.4zm6.8 0c-.8-.1-2.1 0-1.9 1.1.1.9-.4 2.8 1.1 2.6.8 0 2 0 1.9-1.1 0-.9.3-2.7-1.1-2.6zm-268.3-5c8.2-9.1.8-13-8.6-10.3l.2 2.1c8.5-1.3 12.3-.1 5.5 7.9-.1.2-6 6.5-5.8 6.6l-.1 2.3h12.9v-2.6h-9.5l5.4-6zm104.9-1.7h2.4v12.2h-2.4zm22 1.2c-.4 0-1.2-.1-1.4.2-.3.7-.3 2 0 2.7.7.3 2.5.5 2.3-.7-.1-.7.4-2.4-.9-2.2zm-7.6-1.4.1 1a7.6 7.6 0 0 0-4.2-1.1c-8.8.9-4.3 19.3 4.5 10.9l.2 1.6h1.9v-17.5h-2.5v5.1zm-2.2 10.6c-.9 0-2 .1-2.8-.3-1.7-1.9-1.8-6.2 0-8 1.4-.9 3.6-.1 5.1.3v6.7c-.7.4-1.5 1.1-2.3 1.3zm10.5-1.1c-.6-.4-1.5-.2-2.1 0-.3.7-.3 2 0 2.7.2.3 1 .2 1.4.2.7-.1.9-.1.9-.9-.1-.4.2-1.7-.2-2zm365.3-24c-1.7-2.1-2.8-1.9-4.5 0l3.4 3.3c.9-.8 2.4-2.1 1.1-3.3zm-51.8 28.2h-15.7v-20.4c.1-1.4-1.7-2.1-2.6-1.1-1.4.7 0 20.4-.5 21.5 0 1.7 1.4 3.1 3.1 3.1h15.7c2 0 2.1-3.2 0-3.1z" class="st0"/><path d="M489.1 941.5H475c-1.7-.1-3.1 1.4-3.1 3.1v18.8c0 1.7 1.4 3.1 3.1 3.1h14.1c1.7 0 3.1-1.4 3.1-3.1v-18.8c0-1.7-1.4-3.2-3.1-3.1zm0 21.9H475v-18.8h14.1v18.8zm-169.9-.2c-.6-.5-1.9-.5-2.5 0-.3.5-.3 2.6 0 3.1.6.5 1.9.5 2.5 0 .3-.5.3-2.6 0-3.1zm206.9-4.9c-.5.8-5.9.2-6.7.4-2.7.3-1.1-5.8-1.5-7.1-.8-.6 8.5-8.9 8.7-9.4-8-3-17 3.6-16.6 12.1 0 5.1 3.9 10.9 11.5 17.6.5.5 1.6.6 2.1 0 9.2-8.5 13.1-13.5 10.8-21.9l-8.3 8.3z" class="st0"/><path d="M521 955.6h3.3l9.7-9.6-3.4-3.4-9.6 9.7zm-161.1-7.5h3.7v20.1h-3.7v1.6h5.7v-23.3h-5.7zm-23.9 8.8c-.6-.5-1.3-.9-2.1-.9 5.5-1.7 3.3-11.3-3.6-9.9-6.6-1.4-9.4 7.8-3.7 9.9-3.8.5-3.8 5.7-2.7 8.5 2.2 3.2 7.4 2.4 10.7 1.7 3.5-1.1 3.4-6.8 1.4-9.3zm-9.6-5.2c-.9-4.7 8.7-4.7 7.8 0 .8 4.6-8.6 4.6-7.8 0zm7.8 11.3c-1.3 2-4.4 1.5-6.5 1.1-2.3-.7-2.1-4.6-.8-6.2 4.3-2 9.2-.4 7.3 5.1zm22.3-.1c-.8 0-2 0-1.9 1.1 0 .9-.3 2.7 1.1 2.6.8 0 2 0 1.9-1.1 0-.9.3-2.7-1.1-2.6zm-12.7.3c-.6-.5-1.9-.5-2.5 0-.3.8-.3 2.3 0 3.1.6.5 1.9.5 2.5 0 .3-.5.3-2.6 0-3.1zm6-.3c-.8 0-2.1-.1-2 1.1 0 .5-.1 1.9.3 2.3.4.5 2 .4 2.5 0 .3-.9.7-3.4-.8-3.4z" class="st0"/><path d="M574.8 944.6c.9 0 1.6.7 1.6 1.6 0 .9-.7 1.6-1.6 1.6H556c-.9 0-1.6-.7-1.6-1.6 0-.9.7-1.6 1.6-1.6h3.9l1.1-1.1c.3-.3.7-.4 1.1-.4h6.6c.4 0 .8.1 1.1.4l1.1 1.1h3.9zM556 968.1v-15.6c0-.9.3-1.7.9-2.3.6-.6 1.4-.9 2.2-.9h12.6c.8 0 1.6.3 2.2.9.6.6.9 1.4.9 2.3v15.6c0 .8-.3 1.6-.9 2.2-.6.6-1.4.9-2.2.9h-12.6c-.8 0-1.6-.3-2.2-.9-.6-.6-.9-1.4-.9-2.2z" class="st5"/><path d="M556.8 633.2c0-1-1.5-1.3-2-.5l-8.2 12.8c-.4.6-.5 1.3-.3 2l3.2 9.7c.2.8 1.3 1.1 1.8.4l7.1-7.4c.5-.5.8-1.2.6-1.9l-2.2-15.1zm-.6 15.1c.1.7-6.5-1.3-6.7-1.2-.4-.2-.6-.8-.3-1.1 7.4-12.2 6.2-12.5 7.2 1.7.1.2 0 .5-.2.6zm26.5 38.5h-2.2V679h-1.9c-.4 1.7-.4 6-.4 7.8-.3-.1-6.1.2-6.2-.2-.7-.1 4.7-10.6 4.7-10.9h-2.5c-.1.6-5.5 11.4-4.9 11.6.1.9.9 1.5 1.8 1.5h7.1v4.1h2.3v-4.1l2.2-.3v-1.7zm-28.8-55.6c.5.1 1-.2 1.1-.7l.8-3.5 2.1 4.7c.3.4.7.6 1.1.7.4-.1.6-.4.7-.8l1.4-6.2c.3-1.2-1.6-1.6-1.8-.4l-.8 3.4-2.1-4.7c-.6-.9-1.6-.7-1.8.2l-1.4 6.2c-.1.5.2 1 .7 1.1zm-30 46.3.3 1.8 4.2-1.3-.1.8v14.1h2.5v-17.2h-2.5zm41.3 1.5h-1.9l-.5 2.8v5c-.4 0-6 .1-6.2-.2-.6-.1 4.7-10.6 4.7-10.9h-2.4l-4.8 10.4c-.4.8-.1 1.7.5 2.3.6.8 7.3.3 8.2.4v4.1h2.4v-4.1l2.2-.3v-1.7h-2.2V679z" class="st0"/><path d="M572.6 638.2c-.7-2.5-6.2-12.2-9.1-8.8-.7.7-.5 2 .4 2.5 8.9 6.7 7.9 21.8-1.7 27.4-23.7 11.9-37.9-22.9-11.7-31.5 1.4-6.7-10.2.5-11.8 2.7a21 21 0 0 0-5.5 10c-4.4 17.4 16 31.9 31 21.9a20.6 20.6 0 0 0 8.4-24.2zm-21.9 51.6c-2-.2-1.6.6-1.6 2.2-.2 1.2 1.6 1 2.3.7.3-.4.2-1.5.2-2 0-.3 0-.5-.2-.7l-.7-.2zm-8.1-4.5c3.9-3.8 4.8-10.4-2.4-9.9l-5.2.8v1.9c1.2-.4 5.4-.3 6.7-.3 5.3 2.1-5.7 10.6-6.9 13.1l-.1 2.1h11.5v-2.4h-8.5l4.9-5.3z" class="st0"/><path d="M20.7 817.3h40.5a7 7 0 0 1 7 7v40a7 7 0 0 1-7 7H20.7a7 7 0 0 1-7-7v-40a7 7 0 0 1 7-7z" class="st1"/><path d="M44.5 836.8c12.1-.4 7.6-.1 8.4 13.5.4 2.8-7.9 1.1-9.2 1.5-1.6.2-1.6-1.9-1.9-3h-8.3v9c-.2 1.9-2.9 1.9-3.1 0 .6-1-1.6-24.9 1.5-24h10.8c1.5 0 1.7 1.9 1.8 3z" class="st0"/><path d="M84.2 817.3h40.5a7 7 0 0 1 7 7v40a7 7 0 0 1-7 7H84.2a7 7 0 0 1-7-7v-40a7 7 0 0 1 7-7z" class="st1"/><path d="M104.4 854.8c-.7-7.4 3.4-.6 5.5.9 1.2 1-3.9 4.6-4.2 5.3-1.8 1.2-1.2-2.4-1.3-3.2-12.4 1-15.2-19.2-8.6-16.9 1.1 1.4-.7 3.2-.4 4.9a9 9 0 0 0 9 9zm0-21c12.4-1.2 15.1 19.5 8.7 16.9-.5-.3-.6-1-.3-1.5 2.4-5.7-2.2-12.6-8.4-12.4-.1.8.6 4.5-1.3 3.2-.3-.7-5.4-4.2-4.2-5.2 2.1-1.4 6.3-8.5 5.5-1z" class="st0"/><path fill="none" stroke="#14588c" stroke-miterlimit="10" stroke-width="4" d="M147.8 817.3h40.5a7 7 0 0 1 7 7v40a7 7 0 0 1-7 7h-40.5a7 7 0 0 1-7-7v-40a7 7 0 0 1 7-7z"/><path d="M155.1 839.4c-1.1-.8-.3-2.5 1-2.6 1 .6 26.5-1.6 25.5 1.5 0 .8-.7 1.5-1.5 1.5h-24c-.4 0-.7-.1-1-.4zm1 7.9c-2 0-1.9-2.9 0-3h24c1.2.1 2 1.7 1 2.6-.3.3-.6.4-1 .4h-24zm0 7.5c-1.9-.2-1.9-2.9 0-3h24c.4 0 .8.2 1 .5 1.1.8.1 2.4-1 2.5h-24z" class="st0"/><path d="M569.9 538.3h-31.2a8 8 0 0 0-6.9 4l-15.7 27.1a8.1 8.1 0 0 0 0 8l15.7 27.1a8 8 0 0 0 6.9 4h31.2c2.9 0 5.5-1.5 7-4l15.6-27.1a8.1 8.1 0 0 0 0-8l-15.6-27.1a8.1 8.1 0 0 0-7-4z" class="st1"/><path d="M567.7 571.7c4.1-.7 4.1 3.8 0 3.1a13.3 13.3 0 0 1-11.9 11.8c.7 4.2-3.7 4.1-3 0a13.6 13.6 0 0 1-11.9-11.8c-4.1.7-4.1-3.8 0-3.1.6-6.1 5.8-11.3 11.9-11.8-.7-4.1 3.7-4.2 3 0 6.2.5 11.3 5.7 11.9 11.8zm-20.8 9c9.5 9.8 24.6-5.5 14.8-14.9-9.5-9.8-24.6 5.5-14.8 14.9z" class="st0"/><path d="M574.4 528.6h-40.1l-17-17V391.8l17-17h40.1l17 17v119.8l-17 17zm-48.1-76.9h56" class="st1"/><path d="M565.2 492.7h-21.8c-2.3 0-2.3-3.6 0-3.6h21.8c2.4-.1 2.4 3.7 0 3.6zm-1.9-79.1h-7.5v7.5c0 .8-.7 1.5-1.5 1.5-.8-.1-1.4-.7-1.5-1.5v-7.5h-7.5c-.8-.1-1.4-.7-1.5-1.5 0-.8.7-1.6 1.5-1.6h7.5v-7.4c0-.8.7-1.5 1.5-1.5.8-.1 1.6.7 1.5 1.5v7.4h7.5c2 0 2 3.1 0 3.1z" class="st0"/></svg>