<svg xmlns="http://www.w3.org/2000/svg" xml:space="preserve" id="Layer_1" x="0" y="0" version="1.1" viewBox="0 0 609.1 1127.9"><style>.st0,.st2,.st8{fill:none;stroke:#15a}.st0{stroke-width:2}.st7{opacity:.7}.st8{stroke:#fff}.st9{fill:#fff}</style><path d="M553.5 873.6h-57.1a8 8 0 0 0-7 4L460.8 927a8.3 8.3 0 0 0 0 8.1l28.6 49.5a8 8 0 0 0 7 4h57.1c2.9 0 5.5-1.5 7-4l28.5-49.5a7.9 7.9 0 0 0 0-8.1l-28.5-49.4a8.1 8.1 0 0 0-7-4z" class="st0"/><path d="M400.5 580.8c-2.4 28.6-4.8 62.5-10 85.6m4.3 24.3c8.1-31.3 11-80.3 13.8-112M420 304.4c-2.3 2.8-6.9 2.6-9.3 4.1-3.4 4.5-4.2 10.4-5.4 15.7-10 44.4-19.9 90-20 134.4-3.2 10.6 5.1 207.6 14.6 117.3 2.7-.4 7.2 1.4 8.5 2.8 6.6-.2 10.1-8.1 12.4-13.8M240.2 725c-44.3-10-34.1-37.6-48.4-70.5-9.4-97.9 1.6-197.6-2.2-296.2 2-63.7-7.7-120 4.4-186.9 9.1-19.4 29.1-32.8 48.6-45.8 11-5.1 38.9-6.7 38.9-6.6 15.5-.7 30.2-.7 46.1 0 0-.1 27.9 1.5 38.9 6.6a185.2 185.2 0 0 1 38.8 31.2c4.4 4 7.7 9 9.8 14.6 12 65 2.4 124.3 4.4 186.9-1.7 94 2.7 187.8.5 281.7-.9 9-2.5 14.7-6.2 23.7-1.3 1.3-7.5 29.9-7.6 29.9-9.8 48.6-129.1 44.5-166 31.4zm-21.6-58.6c-5.2-23.1-7.6-57.1-10-85.6m5.7 109.9c-8.3-32.8-10.7-76.9-13.8-112m-11.4-274.3c2.3 2.8 6.8 2.6 9.3 4.1 3.3 4.5 4.2 10.4 5.4 15.7 10 44.4 19.9 90 20 134.4 3.1 10.6-5.1 207.7-14.6 117.3-2.7-.4-7.2 1.4-8.6 2.8-6.6-.2-10.1-8.1-12.3-13.8M401.8 280c1.2 10.4 2 20.8 2.6 31.2m11.2-4.2c-1.5-36-4.8-87.2-10-123.3m4.3 126.2c-1.4-15.8-2.1-24.6-3.9-39.1m-4.1 43.9C375 429.3 373.3 533 386.8 647.4M407 316.9c-2-2.6-4.8-4.2-8-4.7m-181.6 25.5c.6-.4 68.3 1.4 66.1-1.6 2.8-1.8 9.7-11.7 13.5-11.2h19c3.2-.2 4.7 3.5 7.8 3.2s7-.6 8.8 2.1 4.5 7.1 8 6.8l20.2.5c3.9.5 6.2-4.8 8.2-7.2 2.3-4.1 12.3-1.3 15.9-1.7s4.9-2.3 6.6-4.1m-186.8-13.3c.6-10.4 1.4-20.8 2.6-31.2m-3.9-96.3c-4.8 32.6-8.6 89.5-9.9 123.3m9.6-36.2c-1.9 14.5-2.5 23.3-3.9 39.1m23 337.4c13.6-114.3 11.9-218-15-332.6m2.8-2.6c-3.1.6-5.9 2.2-7.9 4.7m26.2 391.5c-.4-10.6-6.5-48.7-.2-52.3 36.9 21.7 115.9 21.7 152.8 0 6.5 3.8 0 44.7-.6 55.5l-3.3 1.2c-7 28.4-137.8 28.5-145 0l-3.3-1.2-.4-3.2zm4-1.3c51.5 18.1 92.9 18.1 144.5 0m-143.6-4.3a151.5 151.5 0 0 0 142.7 0M304.5 265.8c-27.9.4-69.5 3.1-91 25.4-16-20.3-9.8-72.7-7.8-95.5a106 106 0 0 0 1.4-21.8c23.5-34.9 55.4-38.2 97.4-38.5s74 3.5 97.5 38.5c-.3 7.3.1 14.6 1.4 21.8 2 22.9 8.2 75.1-7.9 95.5-21.4-22.3-63.1-25-91-25.4zM207.3 280c4.9-39.6 12.8-97.8 36.6-138.1 2.7-5.4 5.9-10.5 9.5-15.3 17-5 39.9-6 51.1-6s34.2 1 51.2 6c3.6 4.8 6.8 9.9 9.5 15.3 23.8 42 30.6 91.6 36.6 138M392.1 287.6c-1.6 7.4 7.5 12.9 5.3 24.1M217 287.6c1.4 7.4-7.6 13.5-5.4 24.1m165.2 256.2-2.8.7m9.3-175.6-2.6-.8M235.1 568.6l-2.8-.7M225.8 393l2.5-.8m-14.8-101c-4.3 6.7-5.4 15-3 22.6 3.7-1.1 2.4-4.4 3-8.6 7.8-24.9 70-28.7 91-29.5s84.6 5.7 91.1 29.4c.6 4.3-.7 7.6 3 8.7a27 27 0 0 0-3.1-22.6m-91 286.1c-22.3-.5-41.5-.9-69.4-8.7a860 860 0 0 0-6.8-176.4 305 305 0 0 1 152.4 0c-8.9 62.9-9.8 109.7-6.7 176.4-27.9 7.8-47.1 8.2-69.5 8.7zm94.1-263.5c-15.7 72.5-24.9 135.6-23.2 208.7-1.3 53.8 8.1 80.9 5.5 133.5-36.9 21.7-115.9 21.7-152.8 0-2.5-52.7 6.9-79.6 5.5-133.5 1.7-73.1-7.4-136.2-23.1-208.7M414.6 466.8c-1.6 40.5-3.1 72.8-6 111.9m8.1-131.6.2 6.7M398.1 576c-.4 4.5-1.4 8-4.5 13.5a728.6 728.6 0 0 1-6.5-131.2l-1.8.3c-2 47 .7 94.1 8 140.6 3.5 6.4 6.3-19.9 6.6-23.3l-1.8.1zm14.6-15.7c2.7 0 2.4-1.1 2.5-5-.3-1.6 1.2-7.8-1.9-7.8m2.8 16.4h-3.2m-14.8 12c-.1-.2-5.1 4.1-5.2 4.1h-2.2m-3.9-111.4c-.9 37.9.7 81.9 6.8 120.8 5.4-9.5 4.4-13.8 5.3-24.1 2.1-34.1 4.7-69.1 5.9-102.2l-18 5.5zm12.1 96.7c-1.2.5-7.7 6.1-7.7 6.1m-2.5-23.6 11.5-3.1m.2-2.9-11.8 3.4m16.6-94.1a399 399 0 0 0-18.1 7.1l-.3 10.4 18-5.5.4-12zm1.8-.2-1.8.2c-1.3 40.6-4.3 83.4-7.1 124.8h1.8c3.3-43.9 5.1-78.5 7.1-124.9v-.1zm13.8 113.9c-2.3 5.7-5.8 13.6-12.4 13.8a13 13 0 0 0-8.5-2.8c3.3-43.8 5.1-78.4 7.1-124.8 5-1.1 7.7-3 12.3-5.3-.3 43-.2 74.4 1.5 119.2v-.1zm-5.3-23.5c-3.1-1.6-3.3 21.4-2.4 24.2l.5 4.5c.5 3.5 2.3-5.7 2.5-6.2a49 49 0 0 0-.6-22.5zm-21.9 48.1 1.3 7.7M416.2 340.8c-1.7-.5-2.9-.6-3.8.1-.8-11.4-1.3-17-2.5-30.8.7-2.8 2.9-2.3 5.7-3.1l.6 33.8zm-8.3 14.5c.1-12.8-.2-25.7-.9-38.5-3.2 44.8 1.2 90.4-1.8 134.4l1.8-.2c1.4-32.1 1.4-60.3.9-95.7zm8.4 68.3c-.8-32-1-35.8-3-67.7-3.4-.8-3.8-12.2-.9-15-.8-11.4-1.3-17.2-2.5-31-1.2 2.1-2.9 4.7-2.9 6.9 1.7 45.1 1.6 91.5 0 134.2 4.9-1.2 5-1.7 9.7-3.9l-.4-23.5zm-17.9-66.7a452.8 452.8 0 0 0-13.1 101.7l1.6-.2h.2c1.1-34.6 4.9-69 11.6-102.9l-.3 1.4zm29.7-10.1c-4.8-3.1-17.7-12.1-17.4-.6-.3 4.6.1 8.2 1.9 9.2 7.3 3.7 15.6 5.8 23.2 8.7 2.1.5 2.2-2.3 2.4-3.9.2-5.3-4.8-9.3-10.1-13.4zm-17.4-.6c0 3.1 1.5 6 4 7.9m-8.8-13c-.5.6-5.7 3.8-5.3 4.7a645 645 0 0 0-13.5 112.5c6-2.5 12-4.9 18.1-7.1 1.3-36.5 1.6-72.2.7-110.1zm-.4-17.9-4.7 21.8 5.1-3.9-.4-17.9zm-18 124.4c8.3-2.9 12.2-7.8 18.1-11.6m13.8-2v-17.2l.1-58.5c-2.1-.8-4.2-1.2-6.2-2.4 2.5 36.2 2.7 53.9 3.4 91.2l2.6-1.4V434h.1zm0-17.2c-.4-2.4-1.1-4.8-2.1-7.1-.5 9.7-2 20.1.3 29.3 3.4-6.5 2.2-15 1.8-22.2zm-2.9 12.6c2.2-.3 1.7-1.5 1.8-5-.3-1.4 1.1-7.3-1.5-7.7m-.1 16.1h2.9m-3.1-75.5.2 8.1m2.7-23.4c0-13.1.2-25.5.5-37.5a10.6 10.6 0 0 1-4.3 2.6M200.5 578.7c-3-39.1-4.5-71.4-6-111.9m-2.3-13v-6.7m16.9 128.8c.3 3.6 3 29.5 6.6 23.3 7.3-46.5 10-93.6 8-140.6l-1.8-.3c1.3 41.9.1 88.4-6.5 131.2a29.8 29.8 0 0 1-4.6-13.5l-1.7-.1zm-13.4-28.4c-3.1 0-1.6 6.2-1.9 7.8 0 3.9-.3 5 2.5 5m-.3 3.7h-3m25.3 16.2h-2.1c-.1 0-5.1-4.3-5.3-4.1m-6.6-112.8c1.2 33.1 3.8 68.1 5.9 102.2.9 10.3-.2 14.6 5.3 24.1 6.1-38.9 7.6-82.9 6.8-120.8l-18-5.5zm13.6 108.3s-6.6-5.6-7.7-6.1m-1.4-20.6 11.5 3.1m.2-2.6-11.9-3.4m-4.8-90.7.5 12 18 5.5-.3-10.4c-6-2.5-12.1-4.9-18.2-7.1zm-1.7-.2c2 46.4 3.8 81 7.1 124.9h1.7c-2.7-41.4-5.7-84.1-7.1-124.8l-1.7-.1zm-13.4 90.1c2.5-29.6.5-61.9 1-95.4 4.6 2.3 7.4 4.2 12.4 5.3 2 46.4 3.8 81 7.1 124.9-2.7-.4-7.2 1.4-8.6 2.8-16.6-1.6-11.6-33.4-11.9-37.7v.1zm3.4 17.2c.2 1.9.5 3.8.9 5.6 4 21.9 4.4-18.1 1.5-22.5-2.3-1.9-2.9 14.8-2.4 16.9zm22.1 38.9 1.3-7.7M193.5 307c2.8.9 5 .3 5.7 3.1-1.2 13.8-1.7 19.4-2.5 30.8-1-.7-2.1-.6-3.9-.1l.7-33.8zm8.6 143.8v.2l1.7.2c-3-44.6 1.4-90.1-1.7-134.4-1.8 45.1-1.6 91.4 0 134zm-9.8-3.7c4.8 2.2 4.9 2.7 9.8 3.9-1.6-42.7-1.8-89 0-134.1 0-2.3-1.7-4.9-2.9-7-1.2 13.8-1.7 19.6-2.5 31 2.9 2.8 2.4 14.1-1 15-2.4 36.2-2.6 53.9-3.4 91.2zm18.1-91.7A645.8 645.8 0 0 1 222 458.3l1.8.3c-.6-34.8-5.1-69.4-13.4-103.2zm-39.6 4.8c.2 1.6.4 4.4 2.4 3.9l13.3-4.7c7.1-2.6 13.5-2.6 11.9-13.2-.2-2.7-.4-4.4-1.8-5.3-8.4-1.6-26 11.1-25.8 19.3zm23.6-6.1c2.4-1.9 3.9-4.8 4-7.9m5.4 105c6.1 2.2 12.2 4.6 18.2 7.1a643.8 643.8 0 0 0-13.5-112.4c.4-1-4.9-4.3-5.4-4.8-.8 37.9-.5 73.6.7 110.1zm-.7-110.1 5.2 3.9-4.7-21.8-.5 17.9zm.3 94.9c6 3.8 9.9 8.7 18.1 11.6m-31.8-1.9 2.6 1.4c.8-37.3 1-55 3.4-91.2-1.9 1.2-4 1.6-6.1 2.4v58.5l.1 28.9zm0-11.7c3.9 17.1 2.9-20.8 2-24.2a48.6 48.6 0 0 0-2 24.2zm2.6-17.3c-2.6.4-1.3 6.3-1.5 7.7.1 3.5-.4 4.7 1.7 5m-3 3.3h2.9m0-67.5v-8m1-50.3a15 15 0 0 1-4.4-2.6c.3 12.1.6 24.4.6 37.5" class="st2"/><path class="st8" d="M414.7 187a44.7 44.7 0 0 0-25.5-38.9c-9-5.5-11.5-6.2-20.5-15.3a9.6 9.6 0 0 0-6.6-2.9 14 14 0 0 0-6.4-3.3c8.3 12.4 8.6 15.8 22.2 23.6a85.4 85.4 0 0 1 32.2 38.8c1.4 3.4 2.4 6.9 3.2 10.5 2.9 3.2 2.2-5.9 1.4-12.5zm-8.5-11.6c-7-11-6.7-9.3-21.2-20.8 17.4 10.2 28.8 21.6 27.9 42-1.7-7.2-3.9-14.3-6.7-21.2zm6.7 21.2c-5.8-22.8-7.4-27.1-27.9-42 19.6 10.7 25.4 21.4 27.9 42zm0 0c1.2 2.9 1.4-3.3 1.2-4.1-.7-3.5-1-7.2-.9-10.8M385 154.6c-10.3-6.7-14.8-14.6-22.9-24.7m6.6 2.9c2.3 3.1 6 6.7 5.3 8.7m-2.6-1.3c12.5 6.5 24 14.8 34.1 24.6M382.3 144c11.6 9.3 25.7 17 29.9 30.6-7.8-12.4-23.2-21.7-37.8-29m-5.7-12.8c4.7-1.1 7.8 3.3 11.3 5.6l12.8 9.8M194 199.4c2.2 3.9 3.6-9 5-10.4 3.7-10.1 9.8-18.6 17.6-26.8s16.8-14 27.3-20.3c2.7-5.4 5.9-10.5 9.5-15.3-2.4.5-4.7 1.6-6.5 3.3a9.8 9.8 0 0 0-6.6 2.9c-8.9 9.1-11.4 9.8-20.5 15.3-20.5 9.4-27.5 32-25.8 51.3zm2.2-2.8c-.9-20.4 10.4-31.7 27.9-42-20.5 14.9-22.1 19.3-27.9 42zm5.1-21.4c4.6-9.1 12.4-14 22.8-20.6-20.5 14.9-22.1 19.3-27.9 42 1.1-7.3 2.8-14.4 5.1-21.4zm-5.4 6.5c.2 5.3-.7 8.5-.9 10.8s0 7 1.2 4.1m50.7-66.7c-8.1 10.2-12.4 17.9-22.8 24.7m11-13.1c-.7-2 3-5.6 5.2-8.7m-36.8 32a147.8 147.8 0 0 1 34.2-24.6m-3 5.4c-14.7 7.4-30 16.5-37.9 29 4.2-13.6 18.3-21.3 29.9-30.6m-10.5 4.2 12.9-9.8c3.4-2.3 6.6-6.7 11.2-5.6"/><path fill="none" stroke="#f35" d="M377.1 712.8c-15 3.7-30.2 6.3-45.5 7.9m-99.6-7.9c15 3.7 30.2 6.3 45.5 7.9m-48.8-9.2c38 17.4 113.1 17.6 151.6 0l.4-3.2a213 213 0 0 1-152.4 0l.4 3.2zm175-30.2c-6.9 25-7.9 22.6-23.3 30.2l.3-3.2c17.7-8.1 18.9-28.4 23-50.1 3.6 6.3 3.2 9.7 0 23.1zm-198.4 0c6.9 25 7.9 22.6 23.4 30.2l-.4-3.2c-17.6-8.1-18.8-28.4-23-50.1-3.5 6.3-3.1 9.7 0 23.1z"/><path fill="#15a" d="M194.7 200.1 130.4.3l152-.3-36.3 129.8c-21.4 30.7-42.3 34.8-51.4 70.3zm219.7 0L478.6.3l-152-.3 36.3 129.8c21.5 30.7 42.3 34.8 51.5 70.3z" opacity=".5"/><path d="M112.7 873.6H55.6a8 8 0 0 0-7 4L20.1 927a7.9 7.9 0 0 0 0 8.1l28.5 49.5a8 8 0 0 0 7 4h57.1a8 8 0 0 0 7-4l28.5-49.5a7.9 7.9 0 0 0 0-8.1l-28.5-49.4a8 8 0 0 0-7-4zm463.5-564.4h16.6a3.2 3.2 0 0 0 3-3V16a3.2 3.2 0 0 0-3-3h-35.1a3.2 3.2 0 0 0-3 3v271.7c0 .8.3 1.6.9 2.1l18.5 18.5c.5.6 1.3.9 2.1.9z" class="st0"/><path d="M32.9 401.8H16.3a3 3 0 0 1-3-3V16a3 3 0 0 1 3-3h35a3 3 0 0 1 3 3v364.3c0 .8-.3 1.5-.8 2.1L35 400.9a4 4 0 0 1-2.1.9z" class="st0"/><g class="st7"><path d="M557.8 96.7h34.4m-34.4 54.1h34.4m-34.4 54.6h34.4" class="st8"/><path d="M16.7 103.4h34.5m-34.5 54.4h34.5m-34.5 86.1h34.5m-34.5 53.8h34.5" class="st8"/><path d="M576.7 34.8v9.4H572l8.5 9.3 8.6-9.3h-4.7v-9.4zm.8 88.9 2.6 2.7 1.7-1.7a3.5 3.5 0 0 0-4.3-1zm1.8 52.6 4.7-4.6-8.9-8.9h-1.5v7.8l3.1 3.1v-5l2.9 3-2.5 2.4zm-4.2 17.6 6.7-6.7 3.6 3.6 2.1-2.2-22.7-22.7-2.1 2.2 10.2 10.2-8.7 8.7 2.2 2.2 7.2-7.1v11.8h1.5zm1.6-11.8 2.9 2.9-2.9 3v-5.9zm-1.9-75.5-3.2 3.3 3.2 3.3-2.2 2.1c-2-1.6-5.3-7.1-8.4-4.6l12.5 12.4 1.8-1.9-3.5-3.5 2-2.2 3.4 3.3 3.3-3.3-8.9-8.9zm4 151.9c-10-5.4-12.7 10.8-7.3 16.2 10 5.4 12.7-10.8 7.3-16.2zm-.2 11.3c.3 3.4-4.6 5.2-6.3 2.2-1-3.5-2.4-11.9 2.8-12.3 4.8.1 3.6 6.8 3.5 10.1zm-8.1-47.2c0-6-9.4-6-9.4 0-.1 6.1 9.5 6.1 9.4 0zm-3.6 1.2c-1.5 1.4-3.7-.9-2.2-2.3s3.7.9 2.2 2.3zm4.6-143.1c10.1 5.4 12.7-10.8 7.3-16.3-10-5.4-12.7 10.9-7.3 16.3zm.2-11.4c-.2-3.4 4.5-5.1 6.3-2.1 1.4 3.8 2.1 14.4-4.6 11.9-2.7-2.2-1.9-6.7-1.7-9.8zm10.4 156.4c1.8 0 3.5.6 4.7 1.9l1.8-4.5a10.2 10.2 0 0 0-6.5-2c-19.6.7-11.3 30.9 6 21.6l-1.8-4.5c-10.1 7.1-16.7-11.9-4.2-12.5zm-21.4-104.6-3.5 3.4 8.9 8.9 3.3-3.3-3.3-3.4 2.2-2.2 3.5 3.6 1.8-1.7.8.7c-.8 1.4-.5 3.3.7 4.4l1.9-1.9 8.5 8.6 1.9-1.9-28.3-28.1-1.7 1.9 3.9 3.8c-2.3 3 3.4 6.3 4.8 8.3l-2.2 2.1-3.2-3.2zm5.1-80.1h7.8v-9.3h4.6l-8.5-9.3-8.6 9.3h4.7zM17.7 267.8h4.6v3.1h-4.6zM36.1 79.3c-.7 6 2.6 10.2 8.9 8.2 6.5-3.6 1.8-16.6-6.5-9.4.2-6.1 2.6-6.5 7.9-6.1l.2-1.9c-7-1.9-11.3 2.2-10.5 9.2zm6 6.6c-3.1 0-3.8-2.9-3.7-6 7.1-6.4 9.9 6.2 3.7 6zm5.5 200.9 2.1-2L19 254.2l-2 2 8.6 8.5c-1.6 2.6-.6 13.4-.9 16.4h17.2l1.5 1.5H24.7c-1.7-.1-3.1 1.4-3.1 3.1h25l1 1.1zm-19.9-8.9c0-1-.1-10 .2-10.8l10.9 10.8H27.7zm1.6-17.4 2.3 2.4c5.5-2.4 9.7 3.4 8.6 8.5l3.1 3.1c1.4-9.3-3.5-18.6-14-14zm16.3 7.3h4.7v3.1h-4.7zm-13.2-14.7h3.1v4.7h-3.1z" class="st9"/><path d="m44.4 256.8-3.3 3.3 2.2 2.1 3.3-3.2zM34 210.2c-8.6-.8-8.6 19 0 18.1 8.6.9 8.5-18.9 0-18.1zm0 16c-5.2.6-5.3-14.4 0-13.8 5.3-.5 5.2 14.3 0 13.8zm-.3-44.1 8 8c.6-3.1-1.4-5.5-4.6-4.9-.1-15.2 2.5-14.8-13.9-13.7l2.7 2.8H34v7.8h-.3zm-8.8 174.2c-8.1-1.2-8.1 14.1 0 13 8.1 1.1 8.1-14.2 0-13zm-2 10.6c-2.2-2-2.2-9.1 2-8.6 5.9-.2 4 11.9-2 8.6zm-1.3-167.8h15.5v-5.7l2.3 2.3a4 4 0 0 0 3.5 3.4l3.1 3.1 2-1.9-29.1-29.1-2 1.9 4.7 4.7v21.3zm3.1-18.2 1.1 1.2h-1.1v-1.2zm0 4.3h4.2l5.1 5.1v5.8h-9.3v-10.9zM20 329.3h3.1v4.7h4.6l3.2 3.1h12.4v-1.2l5 5.1 2-2-29.1-29.1-2 2 6.8 6.7-2.9 2.9v4.7H20v-4.7h-3.1V334H20v-4.7zm6.2-6.2 1.5-1.6h1.2l11.3 11.3v1.2h-7.8l-3.1-3.1h-3.1v-7.8zm20.2-3.1v4.6h-3.1v-6.2H34v-3.1h4.6v-3.1H27.5l9.3 9.3h3.4v3.4l10.6 10.6h.3V320zm-3 34.5v2.2h-6v-1.8c-.3-2.5 2.6-2 4.2-2l.2-1.8h-3.2c-3.2-.2-3.9 3-3.6 5.6h-2.2v1.7H35v10.3h2.4v-10.3h6v10.3h2.5v-10.3h3.8v-1.7h-3.8c-.5-4.5 1.1-4.3 4.6-4.2l.2-1.7c-2.8-.1-7.7-.5-7.3 3.7zM28.9 83.4v4.2h2.4v-4.4l2.2-.1v-1.7h-2.2v-7.9h-1.9c-.4 1.1-.5 4.6-.5 8-10.1.2-5.9-.1-1.5-11.4h-2.5c-6.1 13.2-8.3 13.9 4 13.3zm2 51.6c-.1 4 6.3 4 6.2 0 .1-4-6.3-4-6.2 0zM24.7 145.9h18.6c1.7.1 3.1-1.4 3.1-3.1v-15.5c.1-2.5-2.5-3.6-4.7-3.2 2.2-14.3-17.6-14.3-15.5 0-2.1-.4-4.7.7-4.6 3.2v15.5c0 1.7 1.4 3.2 3.1 3.1zm12.6-28.2c1.7 1.5 1.2 4.4 1.3 6.4h-9.3c-1.1-5.2 3-10.3 8-6.4zm-12.6 9.6h18.6v15.5H24.7v-15.5zm21.4 50.4-5.8-5.8-1.7 1.7 3.3 3.3c-4.8 1.8-1.7 9.3 3 7.2v9.1l2.3 2.3c-.4-2.2 1-16.4-1.1-17.8zm-3.9 3.9c-1.5-1.3.6-3.6 2-2.2 1.5 1.2-.6 3.5-2 2.2zM25.3 55.2c0 1.2 15.1.4 15.9.6a2 2 0 0 0 2.1-2.1V29.9c0-2.5-3-2.1-4.7-2.1v-3.1h-9.3v3.1c-1.6 0-4.7-.4-4.6 2.1.1.3-.4 26 .6 25.3zm2.4-24.3h12.5v10.9H27.7V30.9z" class="st9"/></g><path d="M333.1 873.6H276a8 8 0 0 0-7 4L240.5 927a7.9 7.9 0 0 0 0 8.1l28.5 49.5a8 8 0 0 0 7 4h57.1c2.9 0 5.5-1.5 7-4l28.5-49.5a7.9 7.9 0 0 0 0-8.1l-28.5-49.4a8.1 8.1 0 0 0-7-4zM112.7 999H55.6a8 8 0 0 0-7 4l-28.5 49.4a7.9 7.9 0 0 0 0 8.1l28.5 49.5a8 8 0 0 0 7 4h57.1a8 8 0 0 0 7-4l28.5-49.5a7.9 7.9 0 0 0 0-8.1l-28.5-49.4a8 8 0 0 0-7-4zm220.4 0H276a8 8 0 0 0-7 4l-28.5 49.4a7.9 7.9 0 0 0 0 8.1L269 1110a8 8 0 0 0 7 4h57.1c2.9 0 5.5-1.5 7-4l28.5-49.5a7.9 7.9 0 0 0 0-8.1l-28.5-49.4a8.1 8.1 0 0 0-7-4zm220.4 0h-57.1a8 8 0 0 0-7 4l-28.6 49.4a8.3 8.3 0 0 0 0 8.1l28.6 49.5a8 8 0 0 0 7 4h57.1c2.9 0 5.5-1.5 7-4l28.5-49.5a7.9 7.9 0 0 0 0-8.1l-28.5-49.4a8.1 8.1 0 0 0-7-4zM222.5 936.6h-57a8.4 8.4 0 0 0-7.1 4.1l-28.5 49.4a8.3 8.3 0 0 0 0 8.1l28.5 49.4a8.4 8.4 0 0 0 7.1 4.1h57a8 8 0 0 0 7-4.1l28.6-49.4a8.3 8.3 0 0 0 0-8.1l-28.6-49.4a8 8 0 0 0-7-4.1zm220.3 0h-57.1a8 8 0 0 0-7 4.1l-28.5 49.4a7.9 7.9 0 0 0 0 8.1l28.5 49.4a8 8 0 0 0 7 4.1h57.1a8 8 0 0 0 7-4.1l28.5-49.4a7.9 7.9 0 0 0 0-8.1l-28.5-49.4a8 8 0 0 0-7-4.1z" class="st0"/><path fill="#15a" d="M229.5 1063.9a7.9 7.9 0 0 0-7-4.1h-57a8 8 0 0 0-7.1 4.1l-28.5 49.4a8 8 0 0 0-1.1 4h130.4a8 8 0 0 0-1.1-4l-28.6-49.4zm220.3 0a7.9 7.9 0 0 0-7-4.1h-57.1a7.9 7.9 0 0 0-7 4.1l-28.5 49.4a7.1 7.1 0 0 0-1.1 4h130.3c0-1.4-.3-2.8-1.1-4l-28.5-49.4z" opacity=".5"/><path d="m72.9 942.4 2.7 2.6 8.6-8.7v14.4h1.9l8.2-8.1 4.3 4.3 2.7-2.6-27.6-27.6-2.7 2.6 12.5 12.5-10.6 10.6zm15.2-6.1 3.5 3.6-3.5 3.6v-7.2zm0-10.2-3.9-3.7v-9.5h1.9l10.8 10.8-5.7 5.7-2.6-2.7 3-3-3.5-3.6v6zm434.2 8.7c3.4-3.5 8.8 2 5.3 5.3-.7.8-1.7 1.2-2.7 1.1-3.2 0-5-4.2-2.6-6.4zm16.6-9.4c-1-1.4-3-1.2-4.5-1.2 2.3-17.5-21.2-17.5-18.9 0-2.6-.4-5.7.8-5.7 3.8v18.9c0 2.1 1.7 3.8 3.8 3.8h22.7a3.8 3.8 0 0 0 3.7-3.8c-.4-1.9 1.1-20.6-1.1-21.5zm-19.6-4.9c1.3-9.5 13.3-6.6 11.3 3.7h-11.3v-3.7zm17 26.4h-22.7V928h22.7v18.9zm-217.9-27.1c-18.9-18-41.3 9.4-22.6 25.4 16.9 14.5 39.2-10.6 22.6-25.4zm-2.7 21.3c-12.3 12.3-30.7-6.3-18.7-18.7 12.3-12 30.7 6.4 18.7 18.7zm221.6 131.8c-2.3.9-10.9-5.4-13.1-4.5-1.8.2-14.2 8.5-12.6 2l11.6-28.3c.6-1.5 2.9-1.5 3.5 0-.4 1.2 14.9 30.9 10.6 30.8zM84.2 1064v10.6c-17.6-10.1-15.2-4.6-15.1-25.2l9.7 5.4-.2 1.9a7.4 7.4 0 0 0 5.6 7.3zm1.9-3.5c-1 0-1.9-.4-2.6-1.1-4.7-5.2 6-9.7 6.4-2.7 0 2.1-1.7 3.8-3.8 3.8zm15.1-14.3-9.6 5.3a7.6 7.6 0 0 0-10.9 0l-9.6-5.3 13.2-7.4c2.7-2.4 14.3 6.6 16.9 7.4zm-7.7 8.6 9.7-5.4c0 20.6 2.6 15.1-15.1 25.2V1064a7.4 7.4 0 0 0 5.6-7.3l-.2-1.9zm230 .3c1.5 2.3-2.9 1.5-3.9 1.6-.2.6.5 14.7-.5 14.6-.8 1-5.9.3-7 .5-3.5.5-1.4-9.6-1.9-11.3h-7.6c-.2.9.5 10.3-.5 10.8-.8 1-5.9.3-7 .5-1 .1-1.9-.8-1.9-1.8v-13.3c-.9-.1-5.6.5-3.8-1.6l15.7-14.2c.7-.7 1.9-.7 2.6 0l15.8 14.2zm-135.1-62.4H177v-3.8h11.8l-.4 3.8zm1.3-7.5H177v-3.8h14.2c-.6 1-1 2.1-1.3 3.2l-.2.6zm-.9 15.1H177v-3.8h11.4l.2 1.9.2 1.9zm20.4-15.7a21.3 21.3 0 0 0-11.4-3.6c-6.5 1.7-5.5 12.1-5.4 17.6 1.2 23.4 36-1.4 16.8-14zm-.3 15.2c-2.7 3-6.9 4.5-10.9 4.6-2.9-5-2.9-14.6 0-19.6 7.6-.5 17.5 7.7 10.9 15zm-19.2 4.2c.4 1.4.9 2.7 1.7 3.9h-14.2v-3.9h12.5zm-.9-3.7zM417.7 980h-3.9v-5.6h3.9v5.6zm9.4 5.5-2.7-2.6 4-4 2.7 2.6-4 4zm-14.2.7-2.8-2.8c12.9-5.6 18.6 5.5 17 17l-3.8-3.8c1.1-6.4-3.5-12.9-10.4-10.4zm-11.3 9.9h-5.7v-3.8h5.7v3.8zm28.3-3.8h5.7v3.8h-5.7v-3.8zm-34.8-14.2 10.5 10.4c-2.2 3-.9 16.4-1.2 19.9h21l1.9 1.8h-22.9c-2 0-3.9 1.9-3.8 3.9h30.5l1.3 1.3 2.4-2.5-37.2-37.2-2.5 2.4zm13.1 15.1.2-1.8 13.2 13.2h-13.4v-11.4z" class="st9"/></svg>